<svg xmlns="http://www.w3.org/2000/svg" viewBox="0 0 35.634 35.63" height="134.666" width="134.679"><defs><clipPath id="prefix__a" clipPathUnits="userSpaceOnUse"><path d="M58.72 214.67h66.13v-70.54H58.72z"/></clipPath></defs><path d="M34.634 17.817c0 1.08-.102 2.138-.3 3.16-1.475 7.776-8.308 13.653-16.517 13.653-.36 0-.716-.01-1.069-.035C7.96 34.045 1 26.742 1 17.817 1 8.528 8.532 1 17.817 1c9.289 0 16.817 7.528 16.817 16.817" fill="#e74c3c"/><g clip-path="url(#prefix__a)" opacity=".5" transform="matrix(.35278 0 0 -.35278 -9.71 85.476)"><path d="M124.85 182.83c-4.18-22.04-23.55-38.7-46.82-38.7-1.02 0-2.03.03-3.03.1l-16.28 19.21 39.93 51.23z" fill="#c0392b"/></g><path d="M10.034 26.849c0 .536.434.97.97.97h13.119a.97.97 0 00.97-.97V13.906h-15.06z" fill="#fff"/><path d="M25.093 13.906v-4.16a.97.97 0 00-.97-.97h-13.12a.97.97 0 00-.97.97v4.16z" fill="#356272"/><path d="M23.745 12.745H11.338V9.982h12.407z" fill="#bdc3c7"/><path d="M13.74 17.322h-2.402v-2.401h2.402zM17.087 17.322h-2.402v-2.401h2.402zM20.433 17.322h-2.401v-2.401h2.401z" fill="#356272"/><path d="M23.78 17.322H21.38v-2.401h2.401z" fill="#1abc9c"/><path d="M13.74 20.475h-2.402v-2.402h2.402zM17.087 20.475h-2.402v-2.402h2.402zM20.433 20.475h-2.401v-2.402h2.401z" fill="#356272"/><path d="M23.78 20.475H21.38v-2.402h2.401z" fill="#5b48a2"/><path d="M13.74 23.628h-2.402v-2.401h2.402zM17.087 23.628h-2.402v-2.401h2.402zM20.433 23.628h-2.401v-2.401h2.401zM13.74 26.78h-2.402v-2.4h2.402zM17.087 26.78h-2.402v-2.4h2.402zM20.433 26.78h-2.401v-2.4h2.401z" fill="#356272"/><path d="M23.78 26.78H21.38v-5.553h2.401z" fill="#c0392b"/></svg>