<svg xmlns="http://www.w3.org/2000/svg" width="26mm" height="37mm" viewBox="0 0 92.126 131.102"><g transform="matrix(.28109 0 0 .28109 217.71 -82.961)" fill="#6c5353" fill-opacity=".945"><rect width="143.571" height="17.143" x="-648.056" y="413.247" ry="4.034"/><rect width="101.429" height="17.143" x="-605.199" y="440.39" ry="4.034"/><rect width="169.286" height="17.143" x="-673.056" y="468.961" ry="4.034"/><rect width="143.571" height="17.143" x="530.021" y="-569.14" ry="4.034" transform="scale(-1)"/><rect width="101.429" height="17.143" x="572.878" y="-541.997" ry="4.034" transform="scale(-1)"/><rect width="169.286" height="17.143" x="505.021" y="-513.425" ry="4.034" transform="scale(-1)"/><path d="M-714.654 651.858c-.381-20.072.132-313.267.55-313.943.381-.617 36.778-.976 99.046-.976h98.442l25.494 17.805c14.022 9.792 26.064 18.024 26.76 18.292 1.009.388 1.215 28.931 1.01 140.031l-.255 139.545-125.512.256c-100.07.205-125.516 0-125.535-1.01zm235.376-141.425l-.013-126.522-22.09-15.405-22.09-15.405h-174.997V636.954h219.203l-.013-126.521z"/></g><g fill-opacity=".945"><g transform="matrix(.28518 0 0 .28518 207.137 -69.03)" fill="#6c5353"><rect ry="4.034" y="413.247" x="-648.056" height="17.143" width="143.571"/><rect ry="4.034" y="440.39" x="-605.199" height="17.143" width="101.429"/><rect ry="4.034" y="468.961" x="-673.056" height="17.143" width="169.286"/><rect transform="scale(-1)" ry="4.034" y="-569.14" x="530.021" height="17.143" width="143.571"/><rect transform="scale(-1)" ry="4.034" y="-541.997" x="572.878" height="17.143" width="101.429"/><rect transform="scale(-1)" ry="4.034" y="-513.425" x="505.021" height="17.143" width="169.286"/><path d="M-714.654 651.858c-.381-20.072.132-313.267.55-313.943.381-.617 36.778-.976 99.046-.976h98.442l25.494 17.805c14.022 9.792 26.064 18.024 26.76 18.292 1.009.388 1.215 28.931 1.01 140.031l-.255 139.545-125.512.256c-100.07.205-125.516 0-125.535-1.01zm235.376-141.425l-.013-126.522-22.09-15.405-22.09-15.405h-174.997V636.954h219.203l-.013-126.521z"/></g><path d="M8.038 72.037V31.759h49.631l6.231 4.308 6.231 4.309.013 35.969.014 35.969H8.038V72.037zm47.666 20.87c.265-.318.419-1.421.35-2.504l-.124-1.935-20.213-.104c-15.905-.082-20.281.004-20.533.401-.493.777-.391 3.692.148 4.232.361.36 5.395.48 20.19.48 16.552 0 19.785-.09 20.182-.57zm-12.226-7.674c.66-.66.846-3.217.296-4.084-.251-.396-3.428-.483-14.522-.4l-14.2.104-.124 2.167c-.083 1.462.047 2.274.401 2.498.288.183 6.598.336 14.021.339 11.742.006 13.58-.076 14.128-.624zm19.623-8.42c.414-1.079.268-3.59-.237-4.095-.363-.363-6.156-.481-23.613-.481-12.723 0-23.417.11-23.766.243-.466.18-.634.798-.634 2.338 0 1.152.12 2.215.267 2.362.147.147 10.949.267 24.004.267 21.274 0 23.761-.066 23.98-.634zm.163-7.462c.623-.623.623-3.625 0-4.248-.363-.363-6.249-.48-24.032-.48-22.874 0-23.563.022-23.966.774-.228.427-.415 1.25-.415 1.83 0 .58.187 1.404.415 1.83.403.753 1.092.775 23.966.775 17.783 0 23.67-.118 24.032-.48zm.09-8.336c.599-.949.454-3.486-.239-4.18-.547-.546-2.366-.629-13.852-.629-8.35 0-13.51.153-13.999.415-1.065.57-1.12 4.15-.074 4.771.458.272 5.41.384 14.243.32 11.528-.081 13.597-.185 13.92-.697zm-.087-9.58c.084-1.462-.047-2.275-.4-2.499-.885-.56-39.755-.43-40.321.136-.625.625-.622 3.626.004 4.252.369.369 5.275.46 20.54.38l20.054-.103.124-2.166z" fill="#fff"/></g></svg>