<svg width="200" height="100" viewBox="0 0 52.9 26.5" xmlns="http://www.w3.org/2000/svg"><path fill="none" stroke="#000" stroke-width=".265" stroke-linecap="round" stroke-linejoin="round" d="M6 6.124l19.096-4.846 4.847 19.097-19.097 4.846z"/><path fill="none" stroke="#000" stroke-width=".265" stroke-linecap="round" stroke-linejoin="round" d="M10.514 23.913l1.308-.331.332 1.307-1.308.332zM23.789 1.61l1.307-.332.332 1.308-1.307.331zM28.303 19.399l1.308-.332.332 1.308-1.308.331zM6 6.124l1.307-.332L7.64 7.1l-1.307.332z"/><text style="line-height:1.25;-inkscape-font-specification:Arial" x="30.231" y="10.259" font-size="4.24" font-family="Arial" letter-spacing="0" word-spacing="0" stroke-width=".265"><tspan x="30.231" y="10.259">cote</tspan></text><path d="M15.45 2.664l-.861 2.526M16.547 2.44l-.861 2.526M19.813 21.59l-.86 2.526M20.91 21.367l-.86 2.525M9.008 13.813L7.065 15.64M9.442 14.801L7.5 16.63M28.06 8.648l-1.943 1.828M28.495 9.637l-1.944 1.828" fill="none" stroke="#000" stroke-width=".265"/></svg>