<svg width="200" height="100" viewBox="0 0 52.9 26.5" xmlns="http://www.w3.org/2000/svg"><path fill="none" stroke="#000" stroke-width=".265" stroke-linecap="round" stroke-linejoin="round" d="M11.661.829l18.73 6.11-6.11 18.73-18.73-6.11z"/><path fill="none" stroke="#000" stroke-width=".265" stroke-linecap="round" stroke-linejoin="round" d="M5.969 18.277l1.282.418-.418 1.282-1.283-.418zM29.109 6.52l1.282.42-.418 1.282-1.282-.419zM23.417 23.969l1.282.418-.418 1.283-1.283-.419zM11.661.829l1.283.418-.419 1.282-1.282-.418z"/><text style="line-height:1.25;-inkscape-font-specification:Arial" x="30.515" y="18.282" font-size="4.24" font-family="Arial" letter-spacing="0" word-spacing="0" stroke-width=".265"><tspan x="30.515" y="18.282">cote</tspan></text><path d="M21.498 2.955L19.42 4.63M22.544 3.352l-2.077 1.675M15.07 21.283l-2.077 1.675M16.117 21.68l-2.078 1.675M10.095 8.935l-2.62.506M9.933 10.002l-2.62.507M28.958 14.753l-2.62.506M28.796 15.82l-2.62.507" fill="none" stroke="#000" stroke-width=".265"/></svg>