<svg width="200" height="100" viewBox="0 0 52.9 26.5" xmlns="http://www.w3.org/2000/svg"><path fill="none" stroke="#000" stroke-width=".265" stroke-linecap="round" stroke-linejoin="round" d="M7.547 2.946h19.702v19.702H7.547z"/><path fill="none" stroke="#000" stroke-width=".265" stroke-linecap="round" stroke-linejoin="round" d="M7.547 21.299h1.349v1.349H7.547zM25.9 2.946h1.349v1.349H25.9zM25.9 21.299h1.349v1.349H25.9zM7.547 2.946h1.349v1.349H7.547z"/><text style="line-height:1.25;-inkscape-font-specification:Arial" x="29.485" y="13.951" font-size="4.24" font-family="Arial" letter-spacing="0" word-spacing="0" stroke-width=".265"><tspan x="29.485" y="13.951">cote</tspan></text><path d="M17.558 1.917l-1.456 2.236M18.676 1.97L17.22 4.207M17.132 21.335l-1.456 2.236M18.25 21.388l-1.456 2.237M8.572 11.139l-2.334 1.294M8.75 12.204l-2.335 1.294M28.309 10.82l-2.334 1.293M28.487 11.884l-2.334 1.294" fill="none" stroke="#000" stroke-width=".265"/></svg>