<svg width="200" height="100" viewBox="0 0 52.9 26.5" xmlns="http://www.w3.org/2000/svg"><path fill="none" stroke="#000" stroke-width=".265" stroke-linecap="round" stroke-linejoin="round" d="M2.056 11.052L34.114.582l4.64 14.207-32.058 10.47z"/><text style="line-height:1.25;-inkscape-font-specification:Arial" x="39.07" y="8.094" font-size="4.24" font-family="Arial" letter-spacing="0" word-spacing="0" stroke-width=".265"><tspan x="39.07" y="8.094">lar</tspan></text><text style="line-height:1.25;-inkscape-font-specification:Arial" x="24.728" y="24.281" font-size="4.24" font-family="Arial" letter-spacing="0" word-spacing="0" stroke-width=".265"><tspan x="24.728" y="24.281">long</tspan></text><path fill="none" stroke="#000" stroke-width=".265" stroke-linecap="round" stroke-linejoin="round" d="M2.056 11.052l1.283-.42.419 1.283-1.283.419zM6.277 23.977l1.283-.419.419 1.282-1.283.42zM32.832 1.001l1.282-.419.419 1.283-1.282.419zM37.053 13.926l1.282-.418.42 1.282-1.283.419z"/><path d="M17.765 4.867l-.689 2.578M18.845 4.57l-.69 2.578M22.294 18.849l-.69 2.577M23.373 18.552l-.689 2.578M3.24 17.649l2.063.372M35.554 7.507l2.063.372" fill="none" stroke="#000" stroke-width=".265"/></svg>