<svg width="200" height="100" viewBox="0 0 52.9 26.5" xmlns="http://www.w3.org/2000/svg"><path fill="none" stroke="#000" stroke-width=".265" stroke-linecap="round" stroke-linejoin="round" d="M6.182 1.178l32.475 9.094-4.03 14.392-32.475-9.095z"/><text style="line-height:1.25;-inkscape-font-specification:Arial" x="39.425" y="18.317" font-size="4.24" font-family="Arial" letter-spacing="0" word-spacing="0" stroke-width=".265"><tspan x="39.425" y="18.317">lar</tspan></text><text style="line-height:1.25;-inkscape-font-specification:Arial" x="7.192" y="24.352" font-size="4.24" font-family="Arial" letter-spacing="0" word-spacing="0" stroke-width=".265"><tspan x="7.192" y="24.352">long</tspan></text><path fill="none" stroke="#000" stroke-width=".265" stroke-linecap="round" stroke-linejoin="round" d="M6.182 1.178l1.3.364-.364 1.299-1.3-.364zM2.516 14.27l1.299.364-.364 1.299-1.299-.364zM37.358 9.909l1.299.363-.364 1.3-1.299-.364zM33.691 23l1.3.365-.364 1.299-1.3-.364z"/><path d="M22.682 4.757l-2.005 1.761M23.744 5.11L21.74 6.87M18.684 18.9l-2.004 1.76M19.747 19.252l-2.005 1.762M3.504 7.321l1.51 1.455M36.01 16.83l1.51 1.455" fill="none" stroke="#000" stroke-width=".265"/></svg>