<?xml version="1.0" encoding="UTF-8" standalone="no"?>
<svg
   xmlns:dc="http://purl.org/dc/elements/1.1/"
   xmlns:cc="http://creativecommons.org/ns#"
   xmlns:rdf="http://www.w3.org/1999/02/22-rdf-syntax-ns#"
   xmlns:svg="http://www.w3.org/2000/svg"
   xmlns="http://www.w3.org/2000/svg"
   xmlns:sodipodi="http://sodipodi.sourceforge.net/DTD/sodipodi-0.dtd"
   xmlns:inkscape="http://www.inkscape.org/namespaces/inkscape"
   enable-background="new 0 0 64 64"
   height="64px"
   version="1.1"
   viewBox="0 0 64 64"
   width="64px"
   xml:space="preserve"
   id="svg32"
   sodipodi:docname="addtocart.svg"
   inkscape:version="0.92.3 (2405546, 2018-03-11)"
   inkscape:export-filename="D:\seb\Workspaces\MathsMentales\img\addtocart.png"
   inkscape:export-xdpi="72"
   inkscape:export-ydpi="72"><metadata
     id="metadata38"><rdf:RDF><cc:Work
         rdf:about=""><dc:format>image/svg+xml</dc:format><dc:type
           rdf:resource="http://purl.org/dc/dcmitype/StillImage" /><dc:title></dc:title></cc:Work></rdf:RDF></metadata><defs
     id="defs36"><marker
       inkscape:isstock="true"
       style="overflow:visible"
       id="marker4139"
       refX="0.0"
       refY="0.0"
       orient="auto"
       inkscape:stockid="TriangleOutS"><path
         transform="scale(0.2)"
         style="fill-rule:evenodd;stroke:#33926d;stroke-width:1pt;stroke-opacity:1;fill:#33926d;fill-opacity:1"
         d="M 5.77,0.0 L -2.88,5.0 L -2.88,-5.0 L 5.77,0.0 z "
         id="path4137" /></marker><marker
       inkscape:isstock="true"
       style="overflow:visible"
       id="marker3661"
       refX="0.0"
       refY="0.0"
       orient="auto"
       inkscape:stockid="TriangleOutS"><path
         transform="scale(0.2)"
         style="fill-rule:evenodd;stroke:#babdb6;stroke-width:1pt;stroke-opacity:0.56779659;fill:#babdb6;fill-opacity:0.56779659"
         d="M 5.77,0.0 L -2.88,5.0 L -2.88,-5.0 L 5.77,0.0 z "
         id="path3659" /></marker><marker
       inkscape:stockid="TriangleOutS"
       orient="auto"
       refY="0.0"
       refX="0.0"
       id="TriangleOutS"
       style="overflow:visible"
       inkscape:isstock="true"
       inkscape:collect="always"><path
         id="path995"
         d="M 5.77,0.0 L -2.88,5.0 L -2.88,-5.0 L 5.77,0.0 z "
         style="fill-rule:evenodd;stroke:#babdb6;stroke-width:1pt;stroke-opacity:1;fill:#babdb6;fill-opacity:1"
         transform="scale(0.2)" /></marker><marker
       inkscape:stockid="Arrow2Send"
       orient="auto"
       refY="0.0"
       refX="0.0"
       id="marker3517"
       style="overflow:visible;"
       inkscape:isstock="true"><path
         id="path3515"
         style="fill-rule:evenodd;stroke-width:0.625;stroke-linejoin:round;stroke:#33926d;stroke-opacity:1;fill:#33926d;fill-opacity:1"
         d="M 8.7185878,4.0337352 L -2.2072895,0.016013256 L 8.7185884,-4.0017078 C 6.9730900,-1.6296469 6.9831476,1.6157441 8.7185878,4.0337352 z "
         transform="scale(0.3) rotate(180) translate(-2.3,0)" /></marker><marker
       inkscape:stockid="Arrow1Send"
       orient="auto"
       refY="0.0"
       refX="0.0"
       id="Arrow1Send"
       style="overflow:visible;"
       inkscape:isstock="true"><path
         id="path862"
         d="M 0.0,0.0 L 5.0,-5.0 L -12.5,0.0 L 5.0,5.0 L 0.0,0.0 z "
         style="fill-rule:evenodd;stroke:#33926d;stroke-width:1pt;stroke-opacity:1;fill:#33926d;fill-opacity:1"
         transform="scale(0.2) rotate(180) translate(6,0)" /></marker><marker
       inkscape:isstock="true"
       style="overflow:visible;"
       id="marker3265"
       refX="0.0"
       refY="0.0"
       orient="auto"
       inkscape:stockid="Arrow2Send"><path
         transform="scale(0.3) rotate(180) translate(-2.3,0)"
         d="M 8.7185878,4.0337352 L -2.2072895,0.016013256 L 8.7185884,-4.0017078 C 6.9730900,-1.6296469 6.9831476,1.6157441 8.7185878,4.0337352 z "
         style="fill-rule:evenodd;stroke-width:0.625;stroke-linejoin:round;stroke:#33926d;stroke-opacity:1;fill:#33926d;fill-opacity:1"
         id="path3263" /></marker><marker
       inkscape:stockid="Arrow2Mend"
       orient="auto"
       refY="0.0"
       refX="0.0"
       id="marker1283"
       style="overflow:visible;"
       inkscape:isstock="true"><path
         id="path1281"
         style="fill-rule:evenodd;stroke-width:0.625;stroke-linejoin:round;stroke:#000000;stroke-opacity:1;fill:#000000;fill-opacity:1"
         d="M 8.7185878,4.0337352 L -2.2072895,0.016013256 L 8.7185884,-4.0017078 C 6.9730900,-1.6296469 6.9831476,1.6157441 8.7185878,4.0337352 z "
         transform="scale(0.6) rotate(180) translate(0,0)" /></marker><marker
       inkscape:stockid="Arrow2Mend"
       orient="auto"
       refY="0.0"
       refX="0.0"
       id="Arrow2Mend"
       style="overflow:visible;"
       inkscape:isstock="true"><path
         id="path874"
         style="fill-rule:evenodd;stroke-width:0.625;stroke-linejoin:round;stroke:#000000;stroke-opacity:1;fill:#000000;fill-opacity:1"
         d="M 8.7185878,4.0337352 L -2.2072895,0.016013256 L 8.7185884,-4.0017078 C 6.9730900,-1.6296469 6.9831476,1.6157441 8.7185878,4.0337352 z "
         transform="scale(0.6) rotate(180) translate(0,0)" /></marker><marker
       inkscape:stockid="TriangleOutL"
       orient="auto"
       refY="0.0"
       refX="0.0"
       id="TriangleOutL"
       style="overflow:visible"
       inkscape:isstock="true"><path
         id="path989"
         d="M 5.77,0.0 L -2.88,5.0 L -2.88,-5.0 L 5.77,0.0 z "
         style="fill-rule:evenodd;stroke:#000000;stroke-width:1pt;stroke-opacity:1;fill:#000000;fill-opacity:1"
         transform="scale(0.8)" /></marker></defs><sodipodi:namedview
     pagecolor="#ffffff"
     bordercolor="#666666"
     borderopacity="1"
     objecttolerance="10"
     gridtolerance="10"
     guidetolerance="10"
     inkscape:pageopacity="0"
     inkscape:pageshadow="2"
     inkscape:window-width="1920"
     inkscape:window-height="1017"
     id="namedview34"
     showgrid="false"
     inkscape:zoom="3.69"
     inkscape:cx="32"
     inkscape:cy="32"
     inkscape:window-x="1272"
     inkscape:window-y="-8"
     inkscape:window-maximized="1"
     inkscape:current-layer="svg32" /><g
     id="Layer_1"><g
       id="g4"><circle
         cx="32"
         cy="32"
         fill="#E0E0D1"
         r="32"
         id="circle2" /></g><g
       opacity="0.2"
       id="g8"><path
         d="M49,26H15c-1.657,0-3,1.343-3,3l4,18c0,1.657,1.343,3,3,3h26c1.657,0,3-1.343,3-3l4-18    C52,27.343,50.657,26,49,26z M24,45c0,1.105-0.895,2-2,2s-2-0.895-2-2v-6c0-1.105,0.895-2,2-2s2,0.895,2,2V45z M34,45    c0,1.105-0.895,2-2,2s-2-0.895-2-2v-6c0-1.105,0.895-2,2-2s2,0.895,2,2V45z M44,45c0,1.105-0.895,2-2,2s-2-0.895-2-2v-6    c0-1.105,0.895-2,2-2s2,0.895,2,2V45z"
         fill="#231F20"
         id="path6" /></g><g
       id="g12"><path
         d="M49,24H15c-1.657,0-3,1.343-3,3l4,18c0,1.657,1.343,3,3,3h26c1.657,0,3-1.343,3-3l4-18    C52,25.343,50.657,24,49,24z M24,43c0,1.105-0.895,2-2,2s-2-0.895-2-2v-6c0-1.105,0.895-2,2-2s2,0.895,2,2V43z M34,43    c0,1.105-0.895,2-2,2s-2-0.895-2-2v-6c0-1.105,0.895-2,2-2s2,0.895,2,2V43z M44,43c0,1.105-0.895,2-2,2s-2-0.895-2-2v-6    c0-1.105,0.895-2,2-2s2,0.895,2,2V43z"
         fill="#E0995E"
         id="path10" /></g><g
       opacity="0.2"
       id="g16"><path
         d="M56,28c0,1.105-0.895,2-2,2H10c-1.105,0-2-0.895-2-2l0,0c0-1.105,0.895-2,2-2h44    C55.105,26,56,26.895,56,28L56,28z"
         fill="#231F20"
         id="path14" /></g><g
       id="g20"><path
         d="M56,26c0,1.105-0.895,2-2,2H10c-1.105,0-2-0.895-2-2l0,0c0-1.105,0.895-2,2-2h44    C55.105,24,56,24.895,56,26L56,26z"
         fill="#E0995E"
         id="path18" /></g><g
       opacity="0.2"
       id="g24"><path
         d="M42.828,15.172c0.781,0.781,0.781,2.047,0,2.828L31.414,33.414c-0.781,0.781-2.047,0.781-2.828,0l0,0    c-0.781-0.781-0.781-2.047,0-2.828L40,15.172C40.781,14.391,42.047,14.391,42.828,15.172L42.828,15.172z"
         fill="#231F20"
         id="path22" /></g><g
       id="g28"><path
         d="M42.828,13.172c0.781,0.781,0.781,2.047,0,2.828L31.414,31.414c-0.781,0.781-2.047,0.781-2.828,0l0,0    c-0.781-0.781-0.781-2.047,0-2.828L40,13.172C40.781,12.391,42.047,12.391,42.828,13.172L42.828,13.172z"
         fill="#4F5D73"
         id="path26" /></g></g><g
     id="Layer_2" /><path
     sodipodi:nodetypes="cc"
     inkscape:connector-curvature="0"
     id="path3261"
     d="m 10.862413,13.037895 c 8.593361,-4.5696405 13.417409,-0.30841 16.40046,4.844133"
     style="fill:none;stroke:#babdb6;stroke-width:6;stroke-linecap:round;stroke-linejoin:miter;stroke-miterlimit:4;stroke-dasharray:none;stroke-opacity:1;marker-end:url(#TriangleOutS);opacity:0.676" /><path
     style="fill:none;stroke:#33926d;stroke-width:6;stroke-linecap:round;stroke-linejoin:round;stroke-miterlimit:4;stroke-dasharray:none;stroke-opacity:1;marker-end:url(#marker4139)"
     d="M 9.7784013,11.68288 C 18.371762,7.113241 23.19581,11.37447 26.178861,16.527013"
     id="path4135"
     inkscape:connector-curvature="0"
     sodipodi:nodetypes="cc" /></svg>