<?xml version="1.0" encoding="UTF-8" standalone="no"?>
<svg
   xmlns:dc="http://purl.org/dc/elements/1.1/"
   xmlns:cc="http://creativecommons.org/ns#"
   xmlns:rdf="http://www.w3.org/1999/02/22-rdf-syntax-ns#"
   xmlns:svg="http://www.w3.org/2000/svg"
   xmlns="http://www.w3.org/2000/svg"
   xmlns:sodipodi="http://sodipodi.sourceforge.net/DTD/sodipodi-0.dtd"
   xmlns:inkscape="http://www.inkscape.org/namespaces/inkscape"
   inkscape:version="1.0 (4035a4fb49, 2020-05-01)"
   inkscape:export-ydpi="72"
   inkscape:export-xdpi="72"
   inkscape:export-filename="D:\seb\Workspaces\MathsMentales\img\iconfinder_pin.png"
   sodipodi:docname="iconfinder_pin_1055010.svg"
   id="svg32"
   xml:space="preserve"
   width="64px"
   viewBox="0 0 64 64"
   version="1.1"
   height="64px"
   enable-background="new 0 0 64 64"><metadata
     id="metadata38"><rdf:RDF><cc:Work
         rdf:about=""><dc:format>image/svg+xml</dc:format><dc:type
           rdf:resource="http://purl.org/dc/dcmitype/StillImage" /></cc:Work></rdf:RDF></metadata><defs
     id="defs36" /><sodipodi:namedview
     inkscape:current-layer="svg32"
     inkscape:window-maximized="1"
     inkscape:window-y="-8"
     inkscape:window-x="1272"
     inkscape:cy="32"
     inkscape:cx="32"
     inkscape:zoom="10.0625"
     showgrid="false"
     id="namedview34"
     inkscape:window-height="1017"
     inkscape:window-width="1920"
     inkscape:pageshadow="2"
     inkscape:pageopacity="0"
     guidetolerance="10"
     gridtolerance="10"
     objecttolerance="10"
     borderopacity="1"
     bordercolor="#666666"
     pagecolor="#ffffff" /><g
     id="Layer_1"><g
       id="g4"><circle
         id="circle2"
         r="32"
         fill="#E0E0D1"
         cy="32"
         cx="32" /></g><g
       id="g8"
       opacity="0.2"><path
         id="path6"
         fill="#231F20"
         d="M39.5,37.154V22.846c2.741-0.916,4.5-2.322,4.5-3.9c0-2.761-5.373-4-12-4s-12,1.239-12,4    c0,1.578,1.759,2.983,4.5,3.9v14.307c-2.741,0.916-4.5,2.322-4.5,3.9c0,2.477,4.327,4.528,10,4.925v7.075l2,4l2-4v-7.075    c5.673-0.398,10-2.448,10-4.925C44,39.475,42.241,38.07,39.5,37.154z" /></g><g
       id="g12"><ellipse
         id="ellipse10"
         ry="5"
         rx="12"
         fill="#C75C5C"
         cy="39.053"
         cx="32" /></g><g
       id="g16"><path
         id="path14"
         fill="#C75C5C"
         d="M44,16.947c0,2.761-5.373,5-12,5s-12-2.239-12-5s5.373-4,12-4S44,14.185,44,16.947z" /></g><g
       id="g20"><rect
         id="rect18"
         y="20"
         x="25"
         width="14"
         height="20"
         fill="#C75C5C" /></g><g
       id="g24"><polygon
         id="polygon22"
         points="30,51.053 32,55.053 34,51.053 34,41.053 30,41.053   "
         fill="#4F5D73" /></g><g
       id="g28"><ellipse
         id="ellipse26"
         ry="1.438"
         rx="2"
         fill="#4F5D73"
         cy="41.241"
         cx="32" /></g></g><g
     id="Layer_2" /></svg>
