<?xml version="1.0" ?><svg enable-background="new 0 0 64 64" height="64px" version="1.1" viewBox="0 0 64 64" width="64px" xml:space="preserve" xmlns="http://www.w3.org/2000/svg" xmlns:xlink="http://www.w3.org/1999/xlink"><g id="Layer_1"><g><circle cx="32" cy="32" fill="#E0E0D1" r="32"/></g><g opacity="0.2"><path d="M33.752,53.565c-0.968,0.581-2.537,0.581-3.504,0L12.726,43.051c-0.968-0.581-0.968-1.522,0-2.103    l17.522-10.513c0.968-0.581,2.537-0.581,3.504,0l17.522,10.513c0.968,0.581,0.968,1.522,0,2.103L33.752,53.565z" fill="#231F20"/></g><g><path d="M33.752,51.565c-0.968,0.581-2.537,0.581-3.504,0L12.726,41.051c-0.968-0.581-0.968-1.522,0-2.103    l17.522-10.513c0.968-0.581,2.537-0.581,3.504,0l17.522,10.513c0.968,0.581,0.968,1.522,0,2.103L33.752,51.565z" fill="#C75C5C"/></g><g opacity="0.2"><path d="M33.752,45.565c-0.968,0.581-2.537,0.581-3.504,0L12.726,35.051c-0.968-0.581-0.968-1.522,0-2.103    l17.522-10.513c0.968-0.581,2.537-0.581,3.504,0l17.522,10.513c0.968,0.581,0.968,1.522,0,2.103L33.752,45.565z" fill="#231F20"/></g><g><path d="M33.752,43.565c-0.968,0.581-2.537,0.581-3.504,0L12.726,33.051c-0.968-0.581-0.968-1.522,0-2.103    l17.522-10.513c0.968-0.581,2.537-0.581,3.504,0l17.522,10.513c0.968,0.581,0.968,1.522,0,2.103L33.752,43.565z" fill="#76C2AF"/></g><g opacity="0.2"><path d="M33.752,37.565c-0.968,0.581-2.537,0.581-3.504,0L12.726,27.051c-0.968-0.581-0.968-1.522,0-2.103    l17.522-10.513c0.968-0.581,2.537-0.581,3.504,0l17.522,10.513c0.968,0.581,0.968,1.522,0,2.103L33.752,37.565z" fill="#231F20"/></g><g><path d="M33.752,35.565c-0.968,0.581-2.537,0.581-3.504,0L12.726,25.051c-0.968-0.581-0.968-1.522,0-2.103    l17.522-10.513c0.968-0.581,2.537-0.581,3.504,0l17.522,10.513c0.968,0.581,0.968,1.522,0,2.103L33.752,35.565z" fill="#4F5D73"/></g></g><g id="Layer_2"/></svg>