<?xml version="1.0" ?><svg enable-background="new 0 0 64 64" height="64px" id="Layer_1" version="1.1" viewBox="0 0 64 64" width="64px" xml:space="preserve" xmlns="http://www.w3.org/2000/svg" xmlns:xlink="http://www.w3.org/1999/xlink"><circle cx="32" cy="32" fill="#F5CF87" r="32"/><g opacity="0.2"><path d="M32,58c-1.657,0-3-1.343-3-3v-1c0-3.872,2.483-5.858,4.125-7.173C34.621,45.63,35,45.229,35,44.338   c-0.363-0.583-3.05-1.526-4.494-2.033C26.917,41.044,22,39.318,22,34.61c0-4.022,2.898-5.988,4.816-7.288   C28.633,26.09,29,25.7,29,25v-5c0-1.657,1.343-3,3-3s3,1.343,3,3v5c0,4.022-2.898,5.988-4.816,7.288   C28.367,33.52,28,33.911,28,34.61c0.363,0.583,3.05,1.526,4.494,2.033C36.083,37.904,41,39.63,41,44.338   c0,3.872-2.483,5.858-4.125,7.173C35.379,52.708,35,53.108,35,54v1C35,56.657,33.657,58,32,58z" fill="#231F20"/></g><path d="M32,53v-1  c0-4.86,6-4.802,6-9.662c0-5.163-13-4.565-13-9.728c0-4.864,7-4.747,7-9.61v-5" fill="none" stroke="#4F5D73" stroke-linecap="round" stroke-miterlimit="10" stroke-width="6"/><g opacity="0.2"><path d="M23.439,24c-1.471,0-1.883-1.088-0.914-2.418l7.713-10.585c0.969-1.33,2.555-1.33,3.524,0l7.713,10.585   C42.444,22.912,42.033,24,40.561,24H23.439z" fill="#231F20"/></g><path d="M23.439,22c-1.471,0-1.883-1.088-0.914-2.418l7.713-10.585c0.969-1.33,2.555-1.33,3.524,0l7.713,10.585  C42.444,20.912,42.033,22,40.561,22H23.439z" fill="#4F5D73"/></svg>