<?xml version="1.0" encoding="UTF-8" standalone="no"?>
<svg
   xmlns:dc="http://purl.org/dc/elements/1.1/"
   xmlns:cc="http://creativecommons.org/ns#"
   xmlns:rdf="http://www.w3.org/1999/02/22-rdf-syntax-ns#"
   xmlns:svg="http://www.w3.org/2000/svg"
   xmlns="http://www.w3.org/2000/svg"
   xmlns:sodipodi="http://sodipodi.sourceforge.net/DTD/sodipodi-0.dtd"
   xmlns:inkscape="http://www.inkscape.org/namespaces/inkscape"
   inkscape:version="1.0 (4035a4fb49, 2020-05-01)"
   inkscape:export-ydpi="72"
   inkscape:export-xdpi="72"
   inkscape:export-filename="D:\seb\Workspaces\MathsMentales\img\iconfinder_pencil_1055013.png"
   sodipodi:docname="iconfinder_pencil_1055013 (1).svg"
   id="svg38"
   xml:space="preserve"
   width="64px"
   viewBox="0 0 64 64"
   version="1.1"
   height="64px"
   enable-background="new 0 0 64 64"><metadata
     id="metadata44"><rdf:RDF><cc:Work
         rdf:about=""><dc:format>image/svg+xml</dc:format><dc:type
           rdf:resource="http://purl.org/dc/dcmitype/StillImage" /></cc:Work></rdf:RDF></metadata><defs
     id="defs42"><marker
       inkscape:isstock="true"
       style="overflow:visible"
       id="Arrow1Lstart"
       refX="0.0"
       refY="0.0"
       orient="auto"
       inkscape:stockid="Arrow1Lstart"><path
         transform="scale(0.8) translate(12.5,0)"
         style="fill-rule:evenodd;stroke:#000000;stroke-width:1.0pt"
         d="M 0.0,0.0 L 5.0,-5.0 L -12.5,0.0 L 5.0,5.0 L 0.0,0.0 z "
         id="path892" /></marker></defs><sodipodi:namedview
     inkscape:current-layer="svg38"
     inkscape:window-maximized="1"
     inkscape:window-y="-8"
     inkscape:window-x="1272"
     inkscape:cy="32"
     inkscape:cx="32"
     inkscape:zoom="12.921875"
     showgrid="false"
     id="namedview40"
     inkscape:window-height="1017"
     inkscape:window-width="1920"
     inkscape:pageshadow="2"
     inkscape:pageopacity="0"
     guidetolerance="10"
     gridtolerance="10"
     objecttolerance="10"
     borderopacity="1"
     bordercolor="#666666"
     pagecolor="#ffffff" /><g
     transform="rotate(37.464385,32,32)"
     id="g4"><circle
       cx="32"
       cy="32"
       fill="#77b3d4"
       r="32"
       id="circle2" /></g><g
     transform="rotate(37.464385,32,32)"
     opacity="0.2"
     id="g8"><path
       d="M 37,14 H 27 c -1.657,0 -3,1.343 -3,3 v 5 1 23 L 29.333,54 32,58 34.667,54 40,46 V 23 22 17 c 0,-1.657 -1.343,-3 -3,-3 z"
       fill="#231f20"
       id="path6" /></g><g
     transform="rotate(37.464385,32,32)"
     id="g12"><path
       d="m 40,21 c 0,1.657 -1.343,3 -3,3 H 27 c -1.657,0 -3,-1.343 -3,-3 v -6 c 0,-1.657 1.343,-3 3,-3 h 10 c 1.657,0 3,1.343 3,3 z"
       fill="#c75c5c"
       id="path10" /></g><g
     transform="rotate(37.464385,32,32)"
     id="g16"><rect
       fill="#e0995e"
       height="24"
       width="4"
       x="24"
       y="20"
       id="rect14" /></g><g
     transform="rotate(37.464385,32,32)"
     id="g20"><rect
       fill="#f5cf87"
       height="26"
       width="8"
       x="28"
       y="20"
       id="rect18" /></g><path
     sodipodi:nodetypes="csc"
     id="path890"
     d="M 17.401564,51.049558 C 54.558646,42.873035 57.886336,34.824667 45.968561,45.58162 34.050786,56.338573 51.46312,51.695284 51.46312,51.695284"
     style="fill:none;stroke:#003399;stroke-width:1.89999998;stroke-linecap:round;stroke-linejoin:miter;stroke-miterlimit:4;stroke-dasharray:none;stroke-opacity:1;stroke-dashoffset:0" /><g
     transform="rotate(37.464385,32,32)"
     id="g24"><rect
       fill="#e0995e"
       height="24"
       width="4"
       x="36"
       y="20"
       id="rect22" /></g><g
     transform="rotate(37.464385,32,32)"
     id="g34"><g
       id="g28"><polygon
         fill="#4f5d73"
         points="32,56 34.667,52 29.333,52 "
         id="polygon26" /></g><g
       id="g32"><polygon
         fill="#ffffff"
         points="40,44 38,44 36,42 32,46 28,42 26,44 24,44 29.333,52 34.667,52 "
         id="polygon30" /></g></g><g
     transform="rotate(37.464385,32,32)"
     id="Layer_2" /></svg>
