<?xml version="1.0" ?><svg enable-background="new 0 0 64 64" height="64px" id="Layer_1" version="1.1" viewBox="0 0 64 64" width="64px" xml:space="preserve" xmlns="http://www.w3.org/2000/svg" xmlns:xlink="http://www.w3.org/1999/xlink"><circle cx="32" cy="32" fill="#77B3D4" r="32"/><g opacity="0.2"><path d="M32,60c-1.104,0-2-0.896-2-2V14c0-1.104,0.896-2,2-2s2,0.896,2,2v44C34,59.104,33.104,60,32,60z" fill="#231F20"/></g><line fill="none" stroke="#F5CF87" stroke-linecap="round" stroke-miterlimit="10" stroke-width="4" x1="32" x2="32" y1="12" y2="56"/><path d="M18.485,16c-0.416,0-1.004,0.246-1.308,0.547l-4.95,4.907c-0.303,0.301-0.303,0.793,0,1.093  l4.95,4.907C17.481,27.754,18.069,28,18.485,28h20.759C39.66,28,40,27.64,40,27.201V16.799C40,16.36,39.66,16,39.244,16H18.485z" fill="#231F20" opacity="0.2"/><path d="M49.515,42c0.416,0,1.004-0.246,1.308-0.547l4.95-4.907c0.303-0.301,0.303-0.793,0-1.093  l-4.95-4.907C50.519,30.246,49.931,30,49.515,30H24.756C24.34,30,24,30.36,24,30.799v10.402C24,41.64,24.34,42,24.756,42H49.515z" fill="#231F20" opacity="0.2"/><path d="M18.485,14c-0.416,0-1.004,0.246-1.308,0.547l-4.95,4.907c-0.303,0.301-0.303,0.793,0,1.093l4.95,4.907  C17.481,25.754,18.069,26,18.485,26h20.759C39.66,26,40,25.64,40,25.201V14.799C40,14.36,39.66,14,39.244,14H18.485z" fill="#4F5D73"/><path d="M49.515,40c0.416,0,1.004-0.246,1.308-0.547l4.95-4.907c0.303-0.301,0.303-0.793,0-1.093l-4.95-4.907  C50.519,28.246,49.931,28,49.515,28H24.756C24.34,28,24,28.36,24,28.799v10.402C24,39.64,24.34,40,24.756,40H49.515z" fill="#FFFFFF"/></svg>