<?xml version="1.0" ?><svg enable-background="new 0 0 64 64" height="64px" version="1.1" viewBox="0 0 64 64" width="64px" xml:space="preserve" xmlns="http://www.w3.org/2000/svg" xmlns:xlink="http://www.w3.org/1999/xlink"><g id="Layer_1"><g><circle cx="32" cy="32" fill="#E0E0D1" r="32"/></g><g opacity="0.2"><g><path d="M47.837,17.001c-0.022,0-0.044,0-0.067,0c-0.02,0-0.037-0.002-0.057,0H32.207     c-0.377,0.017-1.236,0.607-1.347,0.718L12.721,35.864c-0.962,0.962-0.962,2.522,0,3.484L26.647,53.28     C27.131,53.761,27.76,54,28.389,54c0.629,0,1.26-0.239,1.741-0.72l18.138-18.145c0.111-0.111,0.73-0.873,0.73-1.347V18.225     C49.033,17.537,48.512,17.001,47.837,17.001z M44,24c-1.104,0-2-0.896-2-2s0.896-2,2-2s2,0.896,2,2S45.104,24,44,24z" fill="#231F20"/></g></g><g><g><path d="M47.837,15.001c-0.022,0-0.044,0-0.067,0c-0.02,0-0.037-0.002-0.057,0H32.207     c-0.377,0.017-1.236,0.607-1.347,0.718L12.721,33.864c-0.962,0.962-0.962,2.522,0,3.484L26.647,51.28     C27.131,51.761,27.76,52,28.389,52c0.629,0,1.26-0.239,1.741-0.72l18.138-18.145c0.111-0.111,0.73-0.873,0.73-1.347V16.225     C49.033,15.537,48.512,15.001,47.837,15.001z M44,22c-1.104,0-2-0.896-2-2s0.896-2,2-2s2,0.896,2,2S45.104,22,44,22z" fill="#C75C5C"/></g></g></g><g id="Layer_2"/></svg>