<?xml version="1.0" encoding="UTF-8" standalone="no"?>
<svg
   xmlns:dc="http://purl.org/dc/elements/1.1/"
   xmlns:cc="http://creativecommons.org/ns#"
   xmlns:rdf="http://www.w3.org/1999/02/22-rdf-syntax-ns#"
   xmlns:svg="http://www.w3.org/2000/svg"
   xmlns="http://www.w3.org/2000/svg"
   xmlns:sodipodi="http://sodipodi.sourceforge.net/DTD/sodipodi-0.dtd"
   xmlns:inkscape="http://www.inkscape.org/namespaces/inkscape"
   inkscape:version="1.0 (4035a4fb49, 2020-05-01)"
   inkscape:export-ydpi="48"
   inkscape:export-xdpi="48"
   inkscape:export-filename="D:\seb\Workspaces\MathsMentales\img\iconfinder_takeoff.png"
   sodipodi:docname="iconfinder_takeoff_1054961.svg"
   xml:space="preserve"
   width="64px"
   viewBox="0 0 64 64"
   version="1.1"
   id="Layer_1"
   height="64px"
   enable-background="new 0 0 64 64"><metadata
     id="metadata17"><rdf:RDF><cc:Work
         rdf:about=""><dc:format>image/svg+xml</dc:format><dc:type
           rdf:resource="http://purl.org/dc/dcmitype/StillImage" /></cc:Work></rdf:RDF></metadata><defs
     id="defs15" /><sodipodi:namedview
     inkscape:current-layer="Layer_1"
     inkscape:window-maximized="1"
     inkscape:window-y="-8"
     inkscape:window-x="-8"
     inkscape:cy="32"
     inkscape:cx="32"
     inkscape:zoom="13.28125"
     showgrid="false"
     id="namedview13"
     inkscape:window-height="961"
     inkscape:window-width="1280"
     inkscape:pageshadow="2"
     inkscape:pageopacity="0"
     guidetolerance="10"
     gridtolerance="10"
     objecttolerance="10"
     borderopacity="1"
     bordercolor="#666666"
     pagecolor="#ffffff" /><circle
     id="circle2"
     r="32"
     fill="#76C2AF"
     cy="32"
     cx="32" /><path
     id="path4"
     opacity="0.2"
     fill="#231F20"
     d="M50.486,25.37L31.017,43.145c0,0-4.347,3.837-10.367,3.023  c-2.688-0.364-6.145-1.257-10.523-3.08L12,40.634h10.245c0,0,17.574-14.635,19.838-16.899c1.926-1.926,6.75-3.267,9.917-2.529  C53.063,21.454,53.486,22.37,50.486,25.37z" /><polygon
     id="polygon6"
     points="33.167,35.301 15.75,32.634 18.344,29.072 40.5,29.072 "
     opacity="0.2"
     fill="#231F20" /><path
     id="path8"
     fill="#FFFFFF"
     d="M50.486,23.37L31.017,41.145c0,0-4.347,3.837-10.367,3.023c-2.688-0.364-6.145-1.257-10.523-3.08L12,38.634  h10.245c0,0,17.574-14.635,19.838-16.899c1.926-1.926,6.75-3.267,9.917-2.529C53.063,19.454,53.486,20.37,50.486,23.37z" /><polygon
     id="polygon10"
     points="33.167,33.301 15.75,30.634 18,26.634 41,26.634 "
     fill="#FFFFFF" /></svg>
