<?xml version="1.0" ?><svg enable-background="new 0 0 64 64" height="64px" version="1.1" viewBox="0 0 64 64" width="64px" xml:space="preserve" xmlns="http://www.w3.org/2000/svg" xmlns:xlink="http://www.w3.org/1999/xlink"><g id="Layer_1"><g><circle cx="32" cy="32" fill="#C75C5C" r="32"/></g><g opacity="0.2"><path d="M46,50h-2c0-0.74,0-1.968,0-4c0-4.542-3-7.389-3-7.389s-2.975-2.847-3.89-3.722    c-0.915-0.875,0-1.778,0-1.778s1.34-1.282,4.173-3.993c2.833-2.711,2.717-6.66,2.717-6.66l0.001-5.125l-12.001-1l-12.001,1    L20,22.458c0,0-0.116,3.949,2.717,6.66c2.833,2.711,4.173,3.993,4.173,3.993s0.915,0.903,0,1.778    C25.975,35.764,23,38.611,23,38.611S20,41.458,20,46c0,2.032,0,3.26,0,4h-2c-1.105,0-2,0.895-2,2c0,1.105,0.895,2,2,2h28    c1.105,0,2-0.895,2-2C48,50.895,47.105,50,46,50z" fill="#231F20"/></g><g><path d="M41,36.611c0,0-2.975-2.847-3.89-3.722c-0.915-0.875,0-1.778,0-1.778s1.34-1.282,4.173-3.993    c2.833-2.711,2.717-6.66,2.717-6.66l0.001-5.125l-12.001-1l-12.001,1L20,20.458c0,0-0.116,3.949,2.717,6.66    c2.833,2.711,4.173,3.993,4.173,3.993s0.915,0.903,0,1.778C25.975,33.764,23,36.611,23,36.611S20,39.458,20,44    c0,4.542-0.001,5.083-0.001,5.083H32h12.001c0,0-0.001-0.542-0.001-5.083C44,39.458,41,36.611,41,36.611z" fill="#FFFFFF"/></g><g><path d="M31,43l0.031-11c0.016-2.061-0.952-3.362-1.331-3.736l-4.218-4.036c-1.432-1.371-1.484-3.63-1.484-3.652    H32h8.002c0,0,0,0,0,0c-0.001,0-0.023,2.255-1.484,3.652l-4.173,3.992C33.921,28.638,32.984,29.939,33,32l0,11H31z" fill="#4F5D73"/></g><g opacity="0.3"><path d="M48,16c0,1.105-0.895,2-2,2H18c-1.105,0-2-0.895-2-2l0,0c0-1.105,0.895-2,2-2h28    C47.105,14,48,14.895,48,16L48,16z" fill="#231F20"/></g><g><path d="M48,14c0,1.105-0.895,2-2,2H18c-1.105,0-2-0.895-2-2l0,0c0-1.105,0.895-2,2-2h28    C47.105,12,48,12.895,48,14L48,14z" fill="#F5CF87"/></g><g><path d="M48,50c0,1.105-0.895,2-2,2H18c-1.105,0-2-0.895-2-2l0,0c0-1.105,0.895-2,2-2h28    C47.105,48,48,48.895,48,50L48,50z" fill="#F5CF87"/></g><g><polygon fill="#4F5D73" points="41,48 41,48 23,48 23,48 32,40   "/></g></g><g id="Layer_2"/></svg>