<?xml version="1.0" encoding="UTF-8" standalone="no"?>
<svg
   xmlns:dc="http://purl.org/dc/elements/1.1/"
   xmlns:cc="http://creativecommons.org/ns#"
   xmlns:rdf="http://www.w3.org/1999/02/22-rdf-syntax-ns#"
   xmlns:svg="http://www.w3.org/2000/svg"
   xmlns="http://www.w3.org/2000/svg"
   xmlns:sodipodi="http://sodipodi.sourceforge.net/DTD/sodipodi-0.dtd"
   xmlns:inkscape="http://www.inkscape.org/namespaces/inkscape"
   enable-background="new 0 0 64 64"
   height="64px"
   version="1.1"
   viewBox="0 0 64 64"
   width="64px"
   xml:space="preserve"
   id="svg48"
   sodipodi:docname="iconfinder_copy.svg"
   inkscape:export-filename="D:\seb\Workspaces\MathsMentales\img\iconfinder_copy.png"
   inkscape:export-xdpi="48"
   inkscape:export-ydpi="48"
   inkscape:version="1.0 (4035a4fb49, 2020-05-01)"><metadata
     id="metadata54"><rdf:RDF><cc:Work
         rdf:about=""><dc:format>image/svg+xml</dc:format><dc:type
           rdf:resource="http://purl.org/dc/dcmitype/StillImage" /><dc:title /></cc:Work></rdf:RDF></metadata><defs
     id="defs52"><filter
       inkscape:collect="always"
       style="color-interpolation-filters:sRGB"
       id="filter993"
       x="-0.014820757"
       width="1.0296415"
       y="-0.011292005"
       height="1.022584"><feGaussianBlur
         inkscape:collect="always"
         stdDeviation="0.19761009"
         id="feGaussianBlur995" /></filter></defs><sodipodi:namedview
     inkscape:document-rotation="0"
     pagecolor="#ffffff"
     bordercolor="#666666"
     borderopacity="1"
     objecttolerance="10"
     gridtolerance="10"
     guidetolerance="10"
     inkscape:pageopacity="0"
     inkscape:pageshadow="2"
     inkscape:window-width="1920"
     inkscape:window-height="1017"
     id="namedview50"
     showgrid="false"
     inkscape:zoom="8.9549993"
     inkscape:cx="20.529388"
     inkscape:cy="28.157847"
     inkscape:window-x="1272"
     inkscape:window-y="-8"
     inkscape:window-maximized="1"
     inkscape:current-layer="svg48" /><g
     id="g4"
     style="fill:#ffbe6f"><circle
       id="circle2"
       r="32"
       fill="#e0995e"
       cy="32"
       cx="32"
       style="fill:#ffbe6f" /></g><g
     id="g44"
     transform="translate(3.1267451,-5.248465)"
     style="filter:url(#filter993);opacity:0.52793296"><g
       id="g22"><g
         id="g8"
         opacity="0.2"><path
           id="path6"
           fill="#231f20"
           d="M 36,23 V 14 H 19 c -1.657,0 -3,1.343 -3,3 v 34 c 0,1.657 1.343,3 3,3 h 26 c 1.657,0 3,-1.343 3,-3 V 26 h -9 c -1.657,0 -3,-1.343 -3,-3 z" /></g><g
         id="g12"><path
           id="path10"
           fill="#e0e0d1"
           d="M 36,21 V 12 H 19 c -1.657,0 -3,1.343 -3,3 v 34 c 0,1.657 1.343,3 3,3 h 26 c 1.657,0 3,-1.343 3,-3 V 24 h -9 c -1.657,0 -3,-1.343 -3,-3 z" /></g><g
         id="g16"
         opacity="0.2"><polygon
           id="polygon14"
           points="37.016,23.294 48,33 48,24 "
           fill="#231f20" /></g><g
         id="g20"><path
           id="path18"
           fill="#ffffff"
           d="m 36,12 v 9 c 0,1.657 1.343,3 3,3 h 9 z" /></g></g><g
       id="g26"
       opacity="0.2"><rect
         id="rect24"
         y="22"
         x="22"
         width="9.625"
         height="2"
         fill="#231f20" /></g><g
       id="g30"
       opacity="0.2"><rect
         id="rect28"
         y="32"
         x="22"
         width="20"
         height="2"
         fill="#231f20" /></g><g
       id="g34"
       opacity="0.2"><rect
         id="rect32"
         y="27"
         x="22"
         width="20"
         height="2"
         fill="#231f20" /></g><g
       id="g38"
       opacity="0.2"><rect
         id="rect36"
         y="37"
         x="22"
         width="20"
         height="2"
         fill="#231f20" /></g><g
       id="g42"
       opacity="0.2"><rect
         id="rect40"
         y="42"
         x="22"
         width="20"
         height="2"
         fill="#231f20" /></g></g><g
     id="Layer_2" /><g
     transform="translate(-4.5784482,1.7867115)"
     id="g939"><g
       id="g917"><g
         opacity="0.2"
         id="g903"><path
           d="M 36,23 V 14 H 19 c -1.657,0 -3,1.343 -3,3 v 34 c 0,1.657 1.343,3 3,3 h 26 c 1.657,0 3,-1.343 3,-3 V 26 h -9 c -1.657,0 -3,-1.343 -3,-3 z"
           fill="#231f20"
           id="path901" /></g><g
         id="g907"><path
           d="M 36,21 V 12 H 19 c -1.657,0 -3,1.343 -3,3 v 34 c 0,1.657 1.343,3 3,3 h 26 c 1.657,0 3,-1.343 3,-3 V 24 h -9 c -1.657,0 -3,-1.343 -3,-3 z"
           fill="#e0e0d1"
           id="path905" /></g><g
         opacity="0.2"
         id="g911"><polygon
           fill="#231f20"
           points="48,33 48,24 37.016,23.294 "
           id="polygon909" /></g><g
         id="g915"><path
           d="m 36,12 v 9 c 0,1.657 1.343,3 3,3 h 9 z"
           fill="#ffffff"
           id="path913" /></g></g><g
       opacity="0.2"
       id="g921"><rect
         fill="#231f20"
         height="2"
         width="9.625"
         x="22"
         y="22"
         id="rect919" /></g><g
       opacity="0.2"
       id="g925"><rect
         fill="#231f20"
         height="2"
         width="20"
         x="22"
         y="32"
         id="rect923" /></g><g
       opacity="0.2"
       id="g929"><rect
         fill="#231f20"
         height="2"
         width="20"
         x="22"
         y="27"
         id="rect927" /></g><g
       opacity="0.2"
       id="g933"><rect
         fill="#231f20"
         height="2"
         width="20"
         x="22"
         y="37"
         id="rect931" /></g><g
       opacity="0.2"
       id="g937"><rect
         fill="#231f20"
         height="2"
         width="20"
         x="22"
         y="42"
         id="rect935" /></g></g></svg>
