<?xml version="1.0" encoding="UTF-8" standalone="no"?>
<svg
   xmlns:dc="http://purl.org/dc/elements/1.1/"
   xmlns:cc="http://creativecommons.org/ns#"
   xmlns:rdf="http://www.w3.org/1999/02/22-rdf-syntax-ns#"
   xmlns:svg="http://www.w3.org/2000/svg"
   xmlns="http://www.w3.org/2000/svg"
   xmlns:sodipodi="http://sodipodi.sourceforge.net/DTD/sodipodi-0.dtd"
   xmlns:inkscape="http://www.inkscape.org/namespaces/inkscape"
   inkscape:version="1.0 (4035a4fb49, 2020-05-01)"
   inkscape:export-ydpi="64"
   inkscape:export-xdpi="64"
   inkscape:export-filename="D:\seb\Workspaces\MathsMentales\img\iconfinder_pencil.png"
   sodipodi:docname="iconfinder_pencil_1055013.svg"
   id="svg38"
   xml:space="preserve"
   width="48"
   viewBox="0 0 48 48"
   version="1.1"
   height="48"
   enable-background="new 0 0 64 64"><metadata
     id="metadata44"><rdf:RDF><cc:Work
         rdf:about=""><dc:format>image/svg+xml</dc:format><dc:type
           rdf:resource="http://purl.org/dc/dcmitype/StillImage" /><dc:title></dc:title></cc:Work></rdf:RDF></metadata><defs
     id="defs42" /><sodipodi:namedview
     inkscape:current-layer="svg38"
     inkscape:window-maximized="1"
     inkscape:window-y="-8"
     inkscape:window-x="1272"
     inkscape:cy="24.470588"
     inkscape:cx="32"
     inkscape:zoom="13.28125"
     showgrid="false"
     id="namedview40"
     inkscape:window-height="1017"
     inkscape:window-width="1920"
     inkscape:pageshadow="2"
     inkscape:pageopacity="0"
     guidetolerance="10"
     gridtolerance="10"
     objecttolerance="10"
     borderopacity="1"
     bordercolor="#666666"
     pagecolor="#ffffff" /><g
     transform="rotate(95.75946,33.330664,19.393756)"
     id="g901"><g
       id="g8"
       opacity="0.2"
       transform="rotate(37.74118,33.431853,36.934378)"><path
         id="path6"
         fill="#231f20"
         d="M 37,14 H 27 c -1.657,0 -3,1.343 -3,3 v 5 1 23 L 29.333,54 32,58 34.667,54 40,46 V 23 22 17 c 0,-1.657 -1.343,-3 -3,-3 z" /></g><g
       id="g12"
       transform="rotate(37.74118,32.661177,34.510588)"><path
         id="path10"
         fill="#c75c5c"
         d="m 40,21 c 0,1.657 -1.343,3 -3,3 H 27 c -1.657,0 -3,-1.343 -3,-3 v -6 c 0,-1.657 1.343,-3 3,-3 h 10 c 1.657,0 3,1.343 3,3 z" /></g><g
       id="g16"
       transform="rotate(37.74118,32.661177,34.510588)"><rect
         id="rect14"
         y="20"
         x="24"
         width="4"
         height="24"
         fill="#e0995e" /></g><g
       id="g20"
       transform="rotate(37.74118,32.661177,34.510588)"><rect
         id="rect18"
         y="20"
         x="28"
         width="8"
         height="26"
         fill="#f5cf87" /></g><g
       id="g24"
       transform="rotate(37.74118,32.661177,34.510588)"><rect
         id="rect22"
         y="20"
         x="36"
         width="4"
         height="24"
         fill="#e0995e" /></g><g
       id="g34"
       transform="rotate(37.74118,32.661177,34.510588)"><g
         id="g28"><polygon
           id="polygon26"
           points="32,56 34.667,52 29.333,52 "
           fill="#4f5d73" /></g><g
         id="g32"><polygon
           id="polygon30"
           points="40,44 38,44 36,42 32,46 28,42 26,44 24,44 29.333,52 34.667,52 "
           fill="#ffffff" /></g></g></g><g
     id="Layer_2" /></svg>
