<?xml version="1.0" ?><svg enable-background="new 0 0 64 64" height="64px" id="Layer_1" version="1.1" viewBox="0 0 64 64" width="64px" xml:space="preserve" xmlns="http://www.w3.org/2000/svg" xmlns:xlink="http://www.w3.org/1999/xlink"><circle cx="32" cy="32" fill="#C75C5C" r="32"/><g opacity="0.2"><path d="M33.799,25.544L12.586,46.757c-0.781,0.781-0.781,2.047,0,2.828l2.828,2.828   c0.781,0.781,2.047,0.781,2.828,0l21.213-21.213L33.799,25.544z" fill="#231F20"/></g><path d="M47.941,22.716c0.781-0.781,0.781-2.047,0-2.828l-2.828-2.828  c-0.781-0.781-2.047-0.781-2.828,0l-7.071,7.071l5.657,5.657L47.941,22.716z" fill="#231F20" opacity="0.2"/><g opacity="0.2"><path d="M20.5,31.563c-0.829,0-1.5-0.671-1.5-1.5v-8c0-0.829,0.671-1.5,1.5-1.5c0.829,0,1.5,0.671,1.5,1.5v8   C22,30.892,21.329,31.563,20.5,31.563z" fill="#231F20"/></g><g opacity="0.2"><path d="M23.063,27h-5.126c-0.829,0-1.5-0.671-1.5-1.5s0.671-1.5,1.5-1.5h5.126c0.829,0,1.5,0.671,1.5,1.5   S23.892,27,23.063,27z" fill="#231F20"/></g><g opacity="0.2"><path d="M33.5,22c-0.829,0-1.5-0.671-1.5-1.5v-8c0-0.829,0.671-1.5,1.5-1.5c0.829,0,1.5,0.671,1.5,1.5v8   C35,21.329,34.329,22,33.5,22z" fill="#231F20"/></g><g opacity="0.2"><path d="M36.063,17.437h-5.126c-0.829,0-1.5-0.671-1.5-1.5s0.671-1.5,1.5-1.5h5.126c0.829,0,1.5,0.671,1.5,1.5   S36.892,17.437,36.063,17.437z" fill="#231F20"/></g><g opacity="0.2"><path d="M49.5,41.563c-0.829,0-1.5-0.671-1.5-1.5v-8c0-0.829,0.671-1.5,1.5-1.5c0.829,0,1.5,0.671,1.5,1.5v8   C51,40.892,50.329,41.563,49.5,41.563z" fill="#231F20"/></g><g opacity="0.2"><path d="M52.063,37h-5.126c-0.829,0-1.5-0.671-1.5-1.5c0-0.829,0.671-1.5,1.5-1.5h5.126c0.829,0,1.5,0.671,1.5,1.5   C53.563,36.329,52.892,37,52.063,37z" fill="#231F20"/></g><g><path d="M33.799,23.544L12.586,44.757c-0.781,0.781-0.781,2.047,0,2.828l2.828,2.828   c0.781,0.781,2.047,0.781,2.828,0l21.213-21.213L33.799,23.544z" fill="#4F5D73"/></g><path d="M47.941,20.716c0.781-0.781,0.781-2.047,0-2.828l-2.828-2.828c-0.781-0.781-2.047-0.781-2.828,0  l-7.071,7.071l5.657,5.657L47.941,20.716z" fill="#FFFFFF"/><g><path d="M20.5,29.563c-0.829,0-1.5-0.671-1.5-1.5v-8c0-0.829,0.671-1.5,1.5-1.5c0.829,0,1.5,0.671,1.5,1.5v8   C22,28.892,21.329,29.563,20.5,29.563z" fill="#F5CF87"/></g><g><path d="M23.063,25h-5.126c-0.829,0-1.5-0.671-1.5-1.5s0.671-1.5,1.5-1.5h5.126c0.829,0,1.5,0.671,1.5,1.5   S23.892,25,23.063,25z" fill="#F5CF87"/></g><g><path d="M33.5,20c-0.829,0-1.5-0.671-1.5-1.5v-8C32,9.671,32.671,9,33.5,9c0.829,0,1.5,0.671,1.5,1.5v8   C35,19.329,34.329,20,33.5,20z" fill="#F5CF87"/></g><g><path d="M36.063,15.437h-5.126c-0.829,0-1.5-0.671-1.5-1.5s0.671-1.5,1.5-1.5h5.126c0.829,0,1.5,0.671,1.5,1.5   S36.892,15.437,36.063,15.437z" fill="#F5CF87"/></g><g><path d="M49.5,39.563c-0.829,0-1.5-0.671-1.5-1.5v-8c0-0.829,0.671-1.5,1.5-1.5c0.829,0,1.5,0.671,1.5,1.5v8   C51,38.892,50.329,39.563,49.5,39.563z" fill="#F5CF87"/></g><g><path d="M52.063,35h-5.126c-0.829,0-1.5-0.671-1.5-1.5c0-0.829,0.671-1.5,1.5-1.5h5.126c0.829,0,1.5,0.671,1.5,1.5   C53.563,34.329,52.892,35,52.063,35z" fill="#F5CF87"/></g></svg>