<?xml version="1.0" encoding="UTF-8" standalone="no"?>
<svg
   xmlns:dc="http://purl.org/dc/elements/1.1/"
   xmlns:cc="http://creativecommons.org/ns#"
   xmlns:rdf="http://www.w3.org/1999/02/22-rdf-syntax-ns#"
   xmlns:svg="http://www.w3.org/2000/svg"
   xmlns="http://www.w3.org/2000/svg"
   xmlns:sodipodi="http://sodipodi.sourceforge.net/DTD/sodipodi-0.dtd"
   xmlns:inkscape="http://www.inkscape.org/namespaces/inkscape"
   inkscape:export-ydpi="72"
   inkscape:export-xdpi="72"
   inkscape:export-filename="D:\seb\Workspaces\MathsMentales\img\removefromcart.png"
   inkscape:version="1.0 (4035a4fb49, 2020-05-01)"
   sodipodi:docname="removefromcart.svg"
   id="svg32"
   xml:space="preserve"
   width="64px"
   viewBox="0 0 64 64"
   version="1.1"
   height="64px"
   enable-background="new 0 0 64 64"><metadata
     id="metadata38"><rdf:RDF><cc:Work
         rdf:about=""><dc:format>image/svg+xml</dc:format><dc:type
           rdf:resource="http://purl.org/dc/dcmitype/StillImage" /><dc:title /></cc:Work></rdf:RDF></metadata><defs
     id="defs36"><marker
       inkscape:stockid="TriangleOutS"
       orient="auto"
       refY="0.0"
       refX="0.0"
       id="marker4139"
       style="overflow:visible"
       inkscape:isstock="true"><path
         id="path4137"
         d="M 5.77,0.0 L -2.88,5.0 L -2.88,-5.0 L 5.77,0.0 z "
         style="fill-rule:evenodd;stroke:#990000;stroke-width:1pt;stroke-opacity:1;fill:#990000;fill-opacity:1"
         transform="scale(0.2)" /></marker><marker
       inkscape:stockid="TriangleOutS"
       orient="auto"
       refY="0.0"
       refX="0.0"
       id="marker3661"
       style="overflow:visible"
       inkscape:isstock="true"><path
         id="path3659"
         d="M 5.77,0.0 L -2.88,5.0 L -2.88,-5.0 L 5.77,0.0 z "
         style="fill-rule:evenodd;stroke:#babdb6;stroke-width:1pt;stroke-opacity:0.56779659;fill:#babdb6;fill-opacity:0.56779659"
         transform="scale(0.2)" /></marker><marker
       inkscape:collect="always"
       inkscape:isstock="true"
       style="overflow:visible"
       id="TriangleOutS"
       refX="0.0"
       refY="0.0"
       orient="auto"
       inkscape:stockid="TriangleOutS"><path
         transform="scale(0.2)"
         style="fill-rule:evenodd;stroke:#babdb6;stroke-width:1pt;stroke-opacity:1;fill:#babdb6;fill-opacity:1"
         d="M 5.77,0.0 L -2.88,5.0 L -2.88,-5.0 L 5.77,0.0 z "
         id="path995" /></marker><marker
       inkscape:isstock="true"
       style="overflow:visible;"
       id="marker3517"
       refX="0.0"
       refY="0.0"
       orient="auto"
       inkscape:stockid="Arrow2Send"><path
         transform="scale(0.3) rotate(180) translate(-2.3,0)"
         d="M 8.7185878,4.0337352 L -2.2072895,0.016013256 L 8.7185884,-4.0017078 C 6.9730900,-1.6296469 6.9831476,1.6157441 8.7185878,4.0337352 z "
         style="fill-rule:evenodd;stroke-width:0.625;stroke-linejoin:round;stroke:#33926d;stroke-opacity:1;fill:#33926d;fill-opacity:1"
         id="path3515" /></marker><marker
       inkscape:isstock="true"
       style="overflow:visible;"
       id="Arrow1Send"
       refX="0.0"
       refY="0.0"
       orient="auto"
       inkscape:stockid="Arrow1Send"><path
         transform="scale(0.2) rotate(180) translate(6,0)"
         style="fill-rule:evenodd;stroke:#33926d;stroke-width:1pt;stroke-opacity:1;fill:#33926d;fill-opacity:1"
         d="M 0.0,0.0 L 5.0,-5.0 L -12.5,0.0 L 5.0,5.0 L 0.0,0.0 z "
         id="path862" /></marker><marker
       inkscape:stockid="Arrow2Send"
       orient="auto"
       refY="0.0"
       refX="0.0"
       id="marker3265"
       style="overflow:visible;"
       inkscape:isstock="true"><path
         id="path3263"
         style="fill-rule:evenodd;stroke-width:0.625;stroke-linejoin:round;stroke:#33926d;stroke-opacity:1;fill:#33926d;fill-opacity:1"
         d="M 8.7185878,4.0337352 L -2.2072895,0.016013256 L 8.7185884,-4.0017078 C 6.9730900,-1.6296469 6.9831476,1.6157441 8.7185878,4.0337352 z "
         transform="scale(0.3) rotate(180) translate(-2.3,0)" /></marker><marker
       inkscape:isstock="true"
       style="overflow:visible;"
       id="marker1283"
       refX="0.0"
       refY="0.0"
       orient="auto"
       inkscape:stockid="Arrow2Mend"><path
         transform="scale(0.6) rotate(180) translate(0,0)"
         d="M 8.7185878,4.0337352 L -2.2072895,0.016013256 L 8.7185884,-4.0017078 C 6.9730900,-1.6296469 6.9831476,1.6157441 8.7185878,4.0337352 z "
         style="fill-rule:evenodd;stroke-width:0.625;stroke-linejoin:round;stroke:#000000;stroke-opacity:1;fill:#000000;fill-opacity:1"
         id="path1281" /></marker><marker
       inkscape:isstock="true"
       style="overflow:visible;"
       id="Arrow2Mend"
       refX="0.0"
       refY="0.0"
       orient="auto"
       inkscape:stockid="Arrow2Mend"><path
         transform="scale(0.6) rotate(180) translate(0,0)"
         d="M 8.7185878,4.0337352 L -2.2072895,0.016013256 L 8.7185884,-4.0017078 C 6.9730900,-1.6296469 6.9831476,1.6157441 8.7185878,4.0337352 z "
         style="fill-rule:evenodd;stroke-width:0.625;stroke-linejoin:round;stroke:#000000;stroke-opacity:1;fill:#000000;fill-opacity:1"
         id="path874" /></marker><marker
       inkscape:isstock="true"
       style="overflow:visible"
       id="TriangleOutL"
       refX="0.0"
       refY="0.0"
       orient="auto"
       inkscape:stockid="TriangleOutL"><path
         transform="scale(0.8)"
         style="fill-rule:evenodd;stroke:#000000;stroke-width:1pt;stroke-opacity:1;fill:#000000;fill-opacity:1"
         d="M 5.77,0.0 L -2.88,5.0 L -2.88,-5.0 L 5.77,0.0 z "
         id="path989" /></marker></defs><sodipodi:namedview
     inkscape:document-rotation="0"
     inkscape:current-layer="svg32"
     inkscape:window-maximized="1"
     inkscape:window-y="-8"
     inkscape:window-x="1272"
     inkscape:cy="38.022804"
     inkscape:cx="47.430532"
     inkscape:zoom="10.908203"
     showgrid="false"
     id="namedview34"
     inkscape:window-height="1017"
     inkscape:window-width="1920"
     inkscape:pageshadow="2"
     inkscape:pageopacity="0"
     guidetolerance="10"
     gridtolerance="10"
     objecttolerance="10"
     borderopacity="1"
     bordercolor="#666666"
     pagecolor="#ffffff" /><g
     id="Layer_2" /><g
     id="g4"><circle
       cx="32"
       cy="32"
       fill="#e0e0d1"
       r="32"
       id="circle2" /></g><g
     opacity="0.2"
     id="g8"><path
       d="M 49,26 H 15 c -1.657,0 -3,1.343 -3,3 l 4,18 c 0,1.657 1.343,3 3,3 h 26 c 1.657,0 3,-1.343 3,-3 l 4,-18 c 0,-1.657 -1.343,-3 -3,-3 z M 24,45 c 0,1.105 -0.895,2 -2,2 -1.105,0 -2,-0.895 -2,-2 v -6 c 0,-1.105 0.895,-2 2,-2 1.105,0 2,0.895 2,2 z m 10,0 c 0,1.105 -0.895,2 -2,2 -1.105,0 -2,-0.895 -2,-2 v -6 c 0,-1.105 0.895,-2 2,-2 1.105,0 2,0.895 2,2 z m 10,0 c 0,1.105 -0.895,2 -2,2 -1.105,0 -2,-0.895 -2,-2 v -6 c 0,-1.105 0.895,-2 2,-2 1.105,0 2,0.895 2,2 z"
       fill="#231f20"
       id="path6" /></g><path
     style="opacity:0.676;fill:none;stroke:#babdb6;stroke-width:6;stroke-linecap:round;stroke-linejoin:miter;stroke-miterlimit:4;stroke-dasharray:none;stroke-opacity:1;marker-end:url(#TriangleOutS)"
     d="M 26.704802,25.589784 C 26.692573,15.856989 20.662448,13.605965 14.712291,13.398789"
     id="path3261"
     inkscape:connector-curvature="0"
     sodipodi:nodetypes="cc" /><g
     id="g12"><path
       d="M 49,24 H 15 c -1.657,0 -3,1.343 -3,3 l 4,18 c 0,1.657 1.343,3 3,3 h 26 c 1.657,0 3,-1.343 3,-3 l 4,-18 c 0,-1.657 -1.343,-3 -3,-3 z M 24,43 c 0,1.105 -0.895,2 -2,2 -1.105,0 -2,-0.895 -2,-2 v -6 c 0,-1.105 0.895,-2 2,-2 1.105,0 2,0.895 2,2 z m 10,0 c 0,1.105 -0.895,2 -2,2 -1.105,0 -2,-0.895 -2,-2 v -6 c 0,-1.105 0.895,-2 2,-2 1.105,0 2,0.895 2,2 z m 10,0 c 0,1.105 -0.895,2 -2,2 -1.105,0 -2,-0.895 -2,-2 v -6 c 0,-1.105 0.895,-2 2,-2 1.105,0 2,0.895 2,2 z"
       fill="#e0995e"
       id="path10" /></g><path
     sodipodi:nodetypes="cc"
     inkscape:connector-curvature="0"
     id="path4135"
     d="M 27.169035,24.42359 C 26.96074,14.693016 20.886492,12.563925 14.933369,12.476657"
     style="fill:none;stroke:#990000;stroke-width:6;stroke-linecap:round;stroke-linejoin:round;stroke-miterlimit:4;stroke-dasharray:none;stroke-opacity:1;marker-end:url(#marker4139)" /><g
     opacity="0.2"
     id="g16"><path
       d="m 56,28 c 0,1.105 -0.895,2 -2,2 H 10 C 8.895,30 8,29.105 8,28 v 0 c 0,-1.105 0.895,-2 2,-2 h 44 c 1.105,0 2,0.895 2,2 z"
       fill="#231f20"
       id="path14" /></g><g
     opacity="0.2"
     id="g24"><path
       d="m 42.828,15.172 c 0.781,0.781 0.781,2.047 0,2.828 L 31.414,33.414 c -0.781,0.781 -2.047,0.781 -2.828,0 v 0 c -0.781,-0.781 -0.781,-2.047 0,-2.828 L 40,15.172 c 0.781,-0.781 2.047,-0.781 2.828,0 z"
       fill="#231f20"
       id="path22" /></g><g
     id="g20"><path
       d="m 56,26 c 0,1.105 -0.895,2 -2,2 H 10 C 8.895,28 8,27.105 8,26 v 0 c 0,-1.105 0.895,-2 2,-2 h 44 c 1.105,0 2,0.895 2,2 z"
       fill="#e0995e"
       id="path18" /></g><g
     id="g28"><path
       d="m 42.828,13.172 c 0.781,0.781 0.781,2.047 0,2.828 L 31.414,31.414 c -0.781,0.781 -2.047,0.781 -2.828,0 v 0 c -0.781,-0.781 -0.781,-2.047 0,-2.828 L 40,13.172 c 0.781,-0.781 2.047,-0.781 2.828,0 z"
       fill="#4f5d73"
       id="path26" /></g></svg>
