<?xml version="1.0" encoding="UTF-8" standalone="no"?>
<svg
   xmlns:dc="http://purl.org/dc/elements/1.1/"
   xmlns:cc="http://creativecommons.org/ns#"
   xmlns:rdf="http://www.w3.org/1999/02/22-rdf-syntax-ns#"
   xmlns:svg="http://www.w3.org/2000/svg"
   xmlns="http://www.w3.org/2000/svg"
   xmlns:sodipodi="http://sodipodi.sourceforge.net/DTD/sodipodi-0.dtd"
   xmlns:inkscape="http://www.inkscape.org/namespaces/inkscape"
   inkscape:export-ydpi="54"
   inkscape:export-xdpi="54"
   inkscape:export-filename="D:\seb\Workspaces\MathsMentales\img\rotate180.png"
   inkscape:version="1.0 (4035a4fb49, 2020-05-01)"
   sodipodi:docname="rotate180.svg"
   xml:space="preserve"
   width="64px"
   viewBox="0 0 64 64"
   version="1.1"
   id="Layer_1"
   height="64px"
   enable-background="new 0 0 64 64"><metadata
     id="metadata21"><rdf:RDF><cc:Work
         rdf:about=""><dc:format>image/svg+xml</dc:format><dc:type
           rdf:resource="http://purl.org/dc/dcmitype/StillImage" /></cc:Work></rdf:RDF></metadata><defs
     id="defs19" /><sodipodi:namedview
     inkscape:current-layer="Layer_1"
     inkscape:window-maximized="1"
     inkscape:window-y="-8"
     inkscape:window-x="1272"
     inkscape:cy="20.390626"
     inkscape:cx="8.7905189"
     inkscape:zoom="7.895121"
     showgrid="false"
     id="namedview17"
     inkscape:window-height="1017"
     inkscape:window-width="1920"
     inkscape:pageshadow="2"
     inkscape:pageopacity="0"
     guidetolerance="10"
     gridtolerance="10"
     objecttolerance="10"
     borderopacity="1"
     bordercolor="#666666"
     pagecolor="#ffffff" /><circle
     id="circle2"
     r="32"
     fill="#F5CF87"
     cy="32"
     cx="32" /><path
     id="path881"
     style="fill:none;stroke:#4f5d73;stroke-width:4.88;stroke-linecap:round;stroke-linejoin:round;stroke-miterlimit:4;stroke-dasharray:none;stroke-opacity:0.40604"
     d="M 26.077096,11.416753 C 16.312312,14.464138 9.6625658,23.505862 9.6630328,33.735112 9.6634208,43.963641 16.313,53.004348 26.077096,56.051518"
     sodipodi:nodetypes="ccc" /><path
     style="fill:#4f5d73;fill-opacity:0.40939599"
     d="m 50.344847,60.325689 c 0.758979,1.260076 0.03956,2.174366 -1.599699,2.030538 L 35.698302,61.210631 c -1.639261,-0.143829 -2.457575,-1.502415 -1.818248,-3.0187 L 38.96768,46.123432 c 0.639327,-1.516285 1.783381,-1.725584 2.542876,-0.464651 z"
     fill="#4f5d73"
     id="path885" /><path
     id="path14"
     fill="#4f5d73"
     d="m 49.029248,59.087479 c 0.758979,1.260076 0.03956,2.174366 -1.599699,2.030538 L 34.382703,59.972421 c -1.639261,-0.143829 -2.457575,-1.502415 -1.818248,-3.0187 l 5.087626,-12.068499 c 0.639327,-1.516285 1.783381,-1.725584 2.542876,-0.464651 z" /><path
     id="path887"
     style="fill:none;stroke:#4f5d73;stroke-width:4.88;stroke-linecap:round;stroke-linejoin:round;stroke-miterlimit:4;stroke-dasharray:none;stroke-opacity:0.4127517"
     d="M 40.618333,55.294851 C 50.268163,52.176252 56.807002,43.191956 56.807787,33.05071 56.808696,22.908024 50.269533,13.921704 40.618333,10.802663"
     sodipodi:nodetypes="ccc" /><path
     sodipodi:nodetypes="ccc"
     d="M 39.302734,54.056641 C 48.952564,50.938042 55.491403,41.953746 55.492188,31.8125 55.493097,21.669814 48.953934,12.683494 39.302734,9.5644531"
     style="fill:none;stroke:#4f5d73;stroke-width:4.88;stroke-linecap:round;stroke-linejoin:round;stroke-miterlimit:4;stroke-dasharray:none;stroke-opacity:1"
     id="path846" /><path
     style="fill:#4f5d73;fill-opacity:0.412752;stroke:none;stroke-opacity:1"
     id="path883"
     fill="#4f5d73"
     d="M 14.624472,7.6024272 C 13.716626,6.4449917 14.318433,5.4493427 15.962955,5.3909605 L 29.051785,4.9271606 C 30.696307,4.8687786 31.675127,6.1167 31.226666,7.6999699 L 27.658183,20.301499 c -0.448462,1.58327 -1.558193,1.931353 -2.466656,0.773131 z" /><path
     sodipodi:nodetypes="ccc"
     d="M 25.148438,9.4941406 C 15.383654,12.541526 8.7339079,21.58325 8.734375,31.8125 c 3.876e-4,10.228529 6.649967,19.269236 16.414063,22.316406"
     style="fill:none;stroke:#4f5d73;stroke-width:4.88;stroke-linecap:round;stroke-linejoin:round;stroke-miterlimit:4;stroke-dasharray:none;stroke-opacity:1"
     id="path876" /><path
     d="M 13.695814,5.6798153 C 12.787968,4.5223798 13.389775,3.5267308 15.034297,3.4683486 l 13.08883,-0.4637999 c 1.644522,-0.058382 2.623342,1.1895394 2.174881,2.7728093 l -3.568483,12.601529 c -0.448462,1.58327 -1.558193,1.931353 -2.466656,0.773131 z"
     fill="#4f5d73"
     id="path879" /></svg>
