<?xml version="1.0" encoding="UTF-8" standalone="no"?>
<svg
   xmlns:dc="http://purl.org/dc/elements/1.1/"
   xmlns:cc="http://creativecommons.org/ns#"
   xmlns:rdf="http://www.w3.org/1999/02/22-rdf-syntax-ns#"
   xmlns:svg="http://www.w3.org/2000/svg"
   xmlns="http://www.w3.org/2000/svg"
   xmlns:sodipodi="http://sodipodi.sourceforge.net/DTD/sodipodi-0.dtd"
   xmlns:inkscape="http://www.inkscape.org/namespaces/inkscape"
   enable-background="new 0 0 64 64"
   height="52"
   version="1.1"
   viewBox="0 0 42 52"
   width="42"
   xml:space="preserve"
   id="svg36"
   sodipodi:docname="sablier.svg"
   inkscape:version="0.92.3 (2405546, 2018-03-11)"><metadata
     id="metadata42"><rdf:RDF><cc:Work
         rdf:about=""><dc:format>image/svg+xml</dc:format><dc:type
           rdf:resource="http://purl.org/dc/dcmitype/StillImage" /><dc:title></dc:title></cc:Work></rdf:RDF></metadata><defs
     id="defs40" /><sodipodi:namedview
     pagecolor="#ffffff"
     bordercolor="#666666"
     borderopacity="1"
     objecttolerance="10"
     gridtolerance="10"
     guidetolerance="10"
     inkscape:pageopacity="0"
     inkscape:pageshadow="2"
     inkscape:window-width="1280"
     inkscape:window-height="961"
     id="namedview38"
     showgrid="false"
     inkscape:snap-page="false"
     fit-margin-top="5"
     fit-margin-left="5"
     fit-margin-right="5"
     fit-margin-bottom="5"
     inkscape:zoom="3.6875"
     inkscape:cx="21"
     inkscape:cy="27"
     inkscape:window-x="-8"
     inkscape:window-y="-8"
     inkscape:window-maximized="1"
     inkscape:current-layer="svg36" /><g
     style="opacity:0.2"
     id="g8"
     transform="translate(-11,-7)"
     inkscape:export-xdpi="72"
     inkscape:export-ydpi="72"><path
       style="fill:#231f20"
       inkscape:connector-curvature="0"
       id="path6"
       d="m 46,50 h -2 c 0,-0.74 0,-1.968 0,-4 0,-4.542 -3,-7.389 -3,-7.389 0,0 -2.975,-2.847 -3.89,-3.722 -0.915,-0.875 0,-1.778 0,-1.778 0,0 1.34,-1.282 4.173,-3.993 C 44.116,26.407 44,22.458 44,22.458 l 10e-4,-5.125 -12.001,-1 -12.001,1 0.001,5.125 c 0,0 -0.116,3.949 2.717,6.66 2.833,2.711 4.173,3.993 4.173,3.993 0,0 0.915,0.903 0,1.778 -0.915,0.875 -3.89,3.722 -3.89,3.722 0,0 -3,2.847 -3,7.389 0,2.032 0,3.26 0,4 h -2 c -1.105,0 -2,0.895 -2,2 0,1.105 0.895,2 2,2 h 28 c 1.105,0 2,-0.895 2,-2 0,-1.105 -0.895,-2 -2,-2 z" /></g><g
     id="g12"
     transform="translate(-11,-7)"
     inkscape:export-xdpi="72"
     inkscape:export-ydpi="72"><path
       style="fill:#ffffff"
       inkscape:connector-curvature="0"
       id="path10"
       d="m 41,36.611 c 0,0 -2.975,-2.847 -3.89,-3.722 -0.915,-0.875 0,-1.778 0,-1.778 0,0 1.34,-1.282 4.173,-3.993 C 44.116,24.407 44,20.458 44,20.458 l 10e-4,-5.125 -12.001,-1 -12.001,1 0.001,5.125 c 0,0 -0.116,3.949 2.717,6.66 2.833,2.711 4.173,3.993 4.173,3.993 0,0 0.915,0.903 0,1.778 -0.915,0.875 -3.89,3.722 -3.89,3.722 0,0 -3,2.847 -3,7.389 0,4.542 -0.001,5.083 -0.001,5.083 H 32 44.001 C 44.001,49.083 44,48.541 44,44 44,39.458 41,36.611 41,36.611 Z" /></g><g
     id="g16"
     transform="translate(-11,-7)"
     inkscape:export-xdpi="72"
     inkscape:export-ydpi="72"><path
       style="fill:#4f5d73"
       inkscape:connector-curvature="0"
       id="path14"
       d="M 31,43 31.031,32 C 31.047,29.939 30.079,28.638 29.7,28.264 L 25.482,24.228 C 24.05,22.857 23.998,20.598 23.998,20.576 H 32 40.002 c 0,0 0,0 0,0 -0.001,0 -0.023,2.255 -1.484,3.652 L 34.345,28.22 C 33.921,28.638 32.984,29.939 33,32 v 11 z" /></g><g
     style="opacity:0.3"
     id="g20"
     transform="translate(-11,-7)"
     inkscape:export-xdpi="72"
     inkscape:export-ydpi="72"><path
       style="fill:#231f20"
       inkscape:connector-curvature="0"
       id="path18"
       d="m 48,16 c 0,1.105 -0.895,2 -2,2 H 18 c -1.105,0 -2,-0.895 -2,-2 v 0 c 0,-1.105 0.895,-2 2,-2 h 28 c 1.105,0 2,0.895 2,2 z" /></g><g
     id="g24"
     transform="translate(-11,-7)"
     inkscape:export-xdpi="72"
     inkscape:export-ydpi="72"><path
       style="fill:#f5cf87"
       inkscape:connector-curvature="0"
       id="path22"
       d="m 48,14 c 0,1.105 -0.895,2 -2,2 H 18 c -1.105,0 -2,-0.895 -2,-2 v 0 c 0,-1.105 0.895,-2 2,-2 h 28 c 1.105,0 2,0.895 2,2 z" /></g><g
     id="g28"
     transform="translate(-11,-7)"
     inkscape:export-xdpi="72"
     inkscape:export-ydpi="72"><path
       style="fill:#f5cf87"
       inkscape:connector-curvature="0"
       id="path26"
       d="m 48,50 c 0,1.105 -0.895,2 -2,2 H 18 c -1.105,0 -2,-0.895 -2,-2 v 0 c 0,-1.105 0.895,-2 2,-2 h 28 c 1.105,0 2,0.895 2,2 z" /></g><g
     id="g32"
     transform="translate(-11,-7)"
     inkscape:export-xdpi="72"
     inkscape:export-ydpi="72"><polygon
       style="fill:#4f5d73"
       id="polygon30"
       points="32,40 41,48 23,48 " /></g><g
     id="Layer_2"
     transform="translate(-11,-7)" /></svg>