<?xml version="1.0" encoding="UTF-8" standalone="no"?>
<svg
   xmlns:dc="http://purl.org/dc/elements/1.1/"
   xmlns:cc="http://creativecommons.org/ns#"
   xmlns:rdf="http://www.w3.org/1999/02/22-rdf-syntax-ns#"
   xmlns:svg="http://www.w3.org/2000/svg"
   xmlns="http://www.w3.org/2000/svg"
   xmlns:sodipodi="http://sodipodi.sourceforge.net/DTD/sodipodi-0.dtd"
   xmlns:inkscape="http://www.inkscape.org/namespaces/inkscape"
   enable-background="new 0 0 64 64"
   height="64px"
   id="Layer_1"
   version="1.1"
   viewBox="0 0 64 64"
   width="64px"
   xml:space="preserve"
   sodipodi:docname="slider-next.svg"
   inkscape:version="0.92.3 (2405546, 2018-03-11)"
   inkscape:export-filename="D:\seb\Workspaces\MathsMentales\mathsmentales\img\slider-play.png"
   inkscape:export-xdpi="72"
   inkscape:export-ydpi="72"><metadata
     id="metadata21"><rdf:RDF><cc:Work
         rdf:about=""><dc:format>image/svg+xml</dc:format><dc:type
           rdf:resource="http://purl.org/dc/dcmitype/StillImage" /><dc:title /></cc:Work></rdf:RDF></metadata><defs
     id="defs19" /><sodipodi:namedview
     pagecolor="#ffffff"
     bordercolor="#666666"
     borderopacity="1"
     objecttolerance="10"
     gridtolerance="10"
     guidetolerance="10"
     inkscape:pageopacity="0"
     inkscape:pageshadow="2"
     inkscape:window-width="1920"
     inkscape:window-height="1017"
     id="namedview17"
     showgrid="false"
     inkscape:zoom="3.6875"
     inkscape:cx="-17.491525"
     inkscape:cy="32"
     inkscape:window-x="1272"
     inkscape:window-y="-8"
     inkscape:window-maximized="1"
     inkscape:current-layer="Layer_1" /><circle
     cx="32"
     cy="32"
     fill="#C75C5C"
     r="32"
     id="circle2"
     style="fill:#76c2af;fill-opacity:1" /><g
     id="g8"
     transform="matrix(1.5368238,0,0,1.5368238,-20.252008,-17.715251)"
     style="opacity:0.2;stroke-width:0.6506927"><path
       d="m 28,44.619 c -0.345,0 -0.69,-0.089 -1,-0.268 -0.619,-0.357 -1,-1.018 -1,-1.732 V 25.381 c 0,-0.714 0.381,-1.375 1,-1.732 0.619,-0.357 1.381,-0.357 2,0 l 12,8.619 c 0.619,0.357 1,1.017 1,1.732 0,0.715 -0.381,1.375 -1,1.732 l -12,8.619 c -0.31,0.178 -0.655,0.268 -1,0.268 z"
       id="path6"
       inkscape:connector-curvature="0"
       style="fill:#231f20;stroke-width:0.423401" /></g><g
     id="g14"
     transform="matrix(1.5368238,0,0,1.5368238,-20.252008,-17.715251)"
     style="fill:#4f5d73;fill-opacity:1;stroke-width:0.6506927"><path
       d="m 28,42.619 c -0.345,0 -0.69,-0.089 -1,-0.268 -0.619,-0.357 -1,-1.018 -1,-1.732 V 23.381 c 0,-0.714 0.381,-1.375 1,-1.732 0.619,-0.357 1.381,-0.357 2,0 l 12,8.619 c 0.619,0.357 1,1.017 1,1.732 0,0.714 -0.381,1.375 -1,1.732 l -12,8.619 c -0.31,0.178 -0.655,0.268 -1,0.268 z"
       id="path12"
       inkscape:connector-curvature="0"
       style="fill:#4f5d73;fill-opacity:1;stroke-width:0.423401" /></g><path
     sodipodi:nodetypes="cc"
     inkscape:connector-curvature="0"
     id="path4536"
     d="m 46.169491,20.169492 0.271187,27.661016"
     style="opacity:0.2;fill:#000000;stroke:#000000;stroke-width:5;stroke-linecap:round;stroke-linejoin:miter;stroke-miterlimit:4;stroke-dasharray:none;stroke-opacity:1" /><path
     style="fill:none;stroke:#4f5d73;stroke-width:5;stroke-linecap:round;stroke-linejoin:miter;stroke-miterlimit:4;stroke-dasharray:none;stroke-opacity:1"
     d="m 46.169491,18.169492 0.271187,27.661016"
     id="path4534"
     inkscape:connector-curvature="0"
     sodipodi:nodetypes="cc" /></svg>