<svg id="Layer_1" data-name="Layer 1" xmlns="http://www.w3.org/2000/svg" xmlns:xlink="http://www.w3.org/1999/xlink" viewBox="0 0 336.09 293.69" width="406" height="306" class="illustration styles_illustrationTablet__1DWOa"><defs><linearGradient id="linear-gradient" x1="206.31" y1="149.8" x2="221.17" y2="23.52" gradientTransform="matrix(1, 0, 0, -1, -49.39, 315.31)" gradientUnits="userSpaceOnUse"><stop offset="0.01"></stop><stop offset="0.08" stop-opacity="0.69"></stop><stop offset="0.21" stop-opacity="0.32"></stop><stop offset="1" stop-opacity="0"></stop></linearGradient><linearGradient id="linear-gradient-2" x1="220.41" y1="159.59" x2="225.61" y2="88.28" xlink:href="#linear-gradient"></linearGradient><linearGradient id="linear-gradient-3" x1="93.74" y1="-23.26" x2="481.01" y2="309.53" xlink:href="#linear-gradient"></linearGradient><linearGradient id="linear-gradient-4" x1="185" y1="238.64" x2="243.81" y2="107.7" gradientTransform="matrix(1, 0, 0, -1, 0, 352)" xlink:href="#linear-gradient"></linearGradient><linearGradient id="linear-gradient-5" x1="-691.33" y1="183.91" x2="-752.96" y2="104.3" gradientTransform="translate(-395.64 352) rotate(180)" xlink:href="#linear-gradient"></linearGradient><linearGradient id="linear-gradient-6" x1="106.29" y1="184.51" x2="175.79" y2="106.92" gradientTransform="matrix(1, 0, 0, -1, 0, 352)" gradientUnits="userSpaceOnUse"><stop offset="0.01"></stop><stop offset="0.13" stop-opacity="0.69"></stop><stop offset="0.25" stop-opacity="0.32"></stop><stop offset="1" stop-opacity="0"></stop></linearGradient><linearGradient id="linear-gradient-7" x1="124" y1="189.11" x2="134.65" y2="118.54" xlink:href="#linear-gradient-6"></linearGradient></defs><title>11</title><path d="M172.59,46.08c-41.25,15.15-75.92,47.2-88.45,85.16-3.6,10.92-5.53,22.18-9.7,33-4.64,12-12,23.21-17.09,35.1-15.43,35.75-7.69,76.59,16.77,105.44,18.43,21.73,45.68,30.41,76.76,23,15.31-3.64,28.49-11.8,43.33-16.07,20.47-5.89,43.6-5.33,64.51-5.87,23.36-.61,72.31-9,95.75-11,35.94-3.08,34.22-77.66,26.34-96.46s-20.16-35.71-29-54.13c-10.22-21.28-15.95-44.67-30.24-63.86C299.69,51,258.72,35,217.83,36.83A150.64,150.64,0,0,0,172.59,46.08Z" transform="translate(-49.39 -36.69)" fill="#0492d2" opacity="0.18" style="isolation: isolate;"></path><ellipse cx="166.76" cy="249.14" rx="149.06" ry="15.06" fill="url(#linear-gradient)"></ellipse><polygon points="207.37 195.49 150.89 195.49 140.62 151.75 197.1 151.75 207.37 195.49" fill="#0492d2"></polygon><polygon points="204.03 195.49 150.89 195.49 140.62 151.75 193.76 151.75 204.03 195.49" fill="url(#linear-gradient-2)"></polygon><rect x="80.77" y="193.9" width="201.42" height="53.66" fill="#0492d2"></rect><rect x="80.77" y="193.9" width="201.42" height="53.66" fill="url(#linear-gradient-3)"></rect><rect x="66.99" y="38.44" width="199.55" height="127.08" rx="17.57" fill="#0492d2"></rect><path d="M315.93,177v7.63a17.59,17.59,0,0,1-17.57,17.57H133.94a17.57,17.57,0,0,1-17.57-17.57h0V177Z" transform="translate(-49.39 -36.69)" fill="url(#linear-gradient-4)"></path><path d="M292.54,161.28v49.46H249.73a4.47,4.47,0,0,1-4.47-4.47h0V165.75a4.47,4.47,0,0,1,4.47-4.47h42.81Z" transform="translate(-49.39 -36.69)" fill="#020202" opacity="0.1" style="isolation: isolate;"></path><path d="M181.74,203.33h31.91a2.08,2.08,0,0,1,2.08,2.08h0a2.08,2.08,0,0,1-2.08,2.08H181.74a2.08,2.08,0,0,1-2.08-2.08h0A2.08,2.08,0,0,1,181.74,203.33Z" transform="translate(-49.39 -36.69)" fill="#473f47"></path><polygon points="137.51 155.51 136.56 161.78 139.19 162.08 142.06 155.45 137.51 155.51" fill="#fcbdba"></polygon><path d="M189.37,197.85a1.61,1.61,0,0,1-.33-.36,1.08,1.08,0,0,1-.91.11l-1.32-.22a2.23,2.23,0,0,1-.67-.19h-.09l-.28.54a8.12,8.12,0,0,0-.83,3.09,28,28,0,0,0,7.63.73,1.17,1.17,0,0,0,1.09-.45.88.88,0,0,0,0-.71,2.12,2.12,0,0,0-1.22-1.09c-.68-.28-1.37-.52-2-.84A4.55,4.55,0,0,1,189.37,197.85Z" transform="translate(-49.39 -36.69)" fill="#0492d2"></path><polygon points="155.15 157.42 154.33 163.71 156.97 163.95 159.7 157.27 155.15 157.42" fill="#fcbdba"></polygon><path d="M294.21,106.48v19.41a9.62,9.62,0,0,1-9.62,9.62H228.26l-22.83,26.26V96.86h79.16A9.62,9.62,0,0,1,294.21,106.48Z" transform="translate(-49.39 -36.69)" fill="#020202" opacity="0.1" style="isolation: isolate;"></path><rect x="159.56" y="51.91" width="82.94" height="38.65" rx="9.62" fill="#fff"></rect><path d="M220.13,122.46a2.06,2.06,0,0,1-.95-.14,2.26,2.26,0,0,1-.93-1.44c-1.57-4.85-4.82-9.57-9.7-11-1.27,5.17-1.18,10.57-1.08,15.9,0,1.42.16,3.05,1.3,3.89a4.33,4.33,0,0,0,2.48.64,33.33,33.33,0,0,0,16-3.41c1.49-.74,4.56-3.63,1.7-4.57-.86-.29-2.76.15-3.68.15Z" transform="translate(-49.39 -36.69)" fill="#020202" opacity="0.1" style="isolation: isolate;"></path><polygon points="137.28 111.87 141.2 133.66 137.28 157.1 143.63 157.59 152.88 131.19 149.75 110.27 137.28 111.87" fill="#473f47"></polygon><polygon points="159.2 110.27 166.25 139.28 160.55 159.25 154.9 158.96 155.69 141.92 145.74 114.37 159.2 110.27" fill="#473f47"></polygon><path d="M228,122.9a11.68,11.68,0,0,1,2.7-1.15,1,1,0,0,1,.93.06.88.88,0,0,1,.27.52,3.23,3.23,0,0,1-.15,1.92,19.43,19.43,0,0,0,3.34,1.46,1.78,1.78,0,0,1,1.19.78,1.13,1.13,0,0,1-.34,1.22,2.52,2.52,0,0,1-1.22.55c-2.9.68-7.62,0-8.31-3.47-.15-.76.13-.89.73-1.32C227.46,123.26,227.75,123.08,228,122.9Z" transform="translate(-49.39 -36.69)" fill="#fcbdba"></path><path d="M206.21,96.13a12.7,12.7,0,0,1,1.25,4.22,4.24,4.24,0,0,1-1.69,3.85,4.36,4.36,0,0,0-1,.64c-1.06,1.09.15,3.06-.46,4.47a2.09,2.09,0,0,1-2.63,1,3.55,3.55,0,0,1-2-2.31,11.06,11.06,0,0,1-.36-3.14l-.11-6.3a8.27,8.27,0,0,1,.64-4.11,4.14,4.14,0,0,1,3.79-2.06C205.23,92.59,205.68,94.89,206.21,96.13Z" transform="translate(-49.39 -36.69)" fill="#fcbdba"></path><path d="M228.19,127.59s-12.08,10.79-12.95,10.79S209,131.6,209,131.6l-.41,15.4a35.24,35.24,0,0,1-4.65,2.3,20,20,0,0,1-8.81,1.8c-5.87-.53-8.46-2.5-8.46-2.5l3.62-36.17s6.84-4.92,9.18-4.17a14.34,14.34,0,0,0,5.06,0c3.38-.45,6.83,4.17,6.83,4.17l4.49,14.75,10.53-3.74A4,4,0,0,1,228.19,127.59Z" transform="translate(-49.39 -36.69)" fill="#fff"></path><path d="M207.54,89.34a3.63,3.63,0,0,0-.53-2.27c-.81-1.13-2.47-1.23-3.83-.93a13.65,13.65,0,0,0-2.7,1.06,3.9,3.9,0,0,1-2,.26,7.09,7.09,0,0,0-4.87,1.82c-1.84,1.74-2.27,4.31-2.46,6.72-.2,2.73,1,5,2.81,7.08,1.53,1.81,4.32,3.59,6.31,1.3a5.69,5.69,0,0,0,1.13-4.08,2.29,2.29,0,0,1-2-1.77,1.63,1.63,0,0,1,.54-1.62,1.26,1.26,0,0,1,1.73.43,1.08,1.08,0,0,1,.13.29,7.48,7.48,0,0,0,.63-1.83c.23-.61,1-1.14,1.5-.73.29.23.46.74.83.66a.7.7,0,0,0,.31-.23,9.69,9.69,0,0,0,1.82-2.4,8.62,8.62,0,0,0,.69-3.32A1.32,1.32,0,0,1,207.54,89.34Z" transform="translate(-49.39 -36.69)" fill="#fc682d"></path><path d="M183.8,88a6.29,6.29,0,0,0-6.33,3.36c-1.39,2.85-.39,6.22-.16,9.39a4.94,4.94,0,0,1-2.88,5.45c-2.24,1.35-4.82,2.26-6.61,4.17a9.28,9.28,0,0,0-2.36,5.68,4.44,4.44,0,0,0,.44,2.56,4.94,4.94,0,0,0,1.5,1.45,15.36,15.36,0,0,0,11.6,2.69,10.78,10.78,0,0,0,8.43-7.9c.88-4.22-1.26-8.41-2.07-12.65a3.88,3.88,0,0,1,.33-3c.67-.9,1.91-1.11,2.88-1.68C193.82,94.43,187.65,88.52,183.8,88Z" transform="translate(-49.39 -36.69)" fill="#fc682d"></path><rect x="139.81" y="55.39" width="4.07" height="4.07" rx="1.99" fill="#0492d2"></rect><path d="M207.12,199.71a1.86,1.86,0,0,1-.33-.36,1.09,1.09,0,0,1-.91.14l-1.32-.2a2.36,2.36,0,0,1-.68-.18h-.09l-.27.55a8.36,8.36,0,0,0-.76,3.11,28.83,28.83,0,0,0,7.64.58,1.15,1.15,0,0,0,1.08-.48.88.88,0,0,0,0-.71,2.07,2.07,0,0,0-1.24-1.06c-.69-.27-1.39-.49-2.06-.81A4.38,4.38,0,0,1,207.12,199.71Z" transform="translate(-49.39 -36.69)" fill="#0492d2"></path><path d="M207.68,207.49h-4.05l-3.23,8.74H183.71l3.23-8.74h-4.05l-28.41,76.76h4.05l2.81-7.59H178l-2.81,7.59h4.05l2.81-7.59h.12v-.32l25.27-68.26v76.17h4.05V207.49Zm-8.38,11.72-4.21,11.38h-16.7l4.21-11.38ZM173.07,245l4.21-11.37H194L189.77,245Zm15.6,3-4.21,11.37h-16.7L172,247.94Zm-26.23,25.74,4.21-11.38h16.7l-4.21,11.38Z" transform="translate(-49.39 -36.69)" fill="#0492d2"></path><rect x="195.87" y="119.27" width="69.83" height="49.45" rx="4.47" fill="#fff"></rect><polygon points="255.02 161.89 206.55 161.89 206.55 126.11 207.42 126.11 207.42 161.01 255.02 161.01 255.02 161.89" fill="#0492d2"></polygon><polygon points="207.12 149.03 206.66 148.28 218.88 140.77 236.85 143.54 252.73 134.38 253.17 135.14 237.02 144.46 236.87 144.43 219.07 141.69 207.12 149.03" fill="#0492d2"></polygon><circle cx="219.52" cy="141.31" r="1.92" fill="#0492d2"></circle><circle cx="236.93" cy="144" r="1.92" fill="#0492d2"></circle><circle cx="252.62" cy="135.05" r="1.92" fill="#0492d2"></circle><circle cx="219.52" cy="141.31" r="1.92" fill="#020202" opacity="0.28" style="isolation: isolate;"></circle><circle cx="236.93" cy="144" r="1.92" fill="#020202" opacity="0.28" style="isolation: isolate;"></circle><circle cx="252.62" cy="135.05" r="1.92" fill="#020202" opacity="0.28" style="isolation: isolate;"></circle><path d="M308.79,217.81s-13.89,26.25-16.49,34.5-2.36,32.56-2.36,32.56h7.56s0-24.53,3.21-28.66S321.81,231,321.81,231Z" transform="translate(-49.39 -36.69)" fill="#473f47"></path><path d="M307.25,221s8.42,34,12.78,41.61,16.28,21.32,16.28,21.32l6.42-3.44s-16.51-21.66-15.59-28,3.26-30.6,3.26-30.6S318.77,215.58,307.25,221Z" transform="translate(-49.39 -36.69)" fill="#473f47"></path><path d="M335.8,172.14s6.71,3.43,4.21,11.68-10.41,26.83-9.55,32.33-.06,5.68-.06,5.68-17.65,6.36-23.15-.86c0,0,10.5-37.15,12.73-41.79S328.58,169.4,335.8,172.14Z" transform="translate(-49.39 -36.69)" fill="#0492d2"></path><path d="M332.32,190.48a24.49,24.49,0,0,1-2.72,5.76,16.73,16.73,0,0,1-2.08,3c-2.27,2.44-5.67,3.37-8.71,4.71a5.16,5.16,0,0,0-1.49.9,5.85,5.85,0,0,0-1.06,1.74c-1.65,3.61-3.87,7.27-7.49,8.9,1.49-5.69,3-11.38,4.7-17a7.33,7.33,0,0,1,3.57-5c3.8-2.79,7.57-5.63,11.41-8.37,1.31-.94,2.68-2,3.79-.3C333.21,186.31,332.77,188.92,332.32,190.48Z" transform="translate(-49.39 -36.69)" fill="url(#linear-gradient-5)"></path><path d="M323.32,157.64c-.38.39-.87.79-.87,1.33a2.37,2.37,0,0,0,.49,1.11c1.16,2,.1,4.8,1.5,6.61a4,4,0,0,0,2,1.28,6.78,6.78,0,0,1,2.27.73,2.85,2.85,0,0,1,.85,2c.08.9-.08,1.8,0,2.7a1.77,1.77,0,0,0,.74,1.56,1.79,1.79,0,0,0,.79.15,19.09,19.09,0,0,0,4.65-.36,1.35,1.35,0,0,0,.61-.24,1.43,1.43,0,0,0,.33-.73c.66-3,1.34-6,2-9a18.82,18.82,0,0,1,1.45-3.11,10.43,10.43,0,0,0,.52-4.67,9.09,9.09,0,0,0-1.18-3.34,6.68,6.68,0,0,0-2.12-2.42,8.1,8.1,0,0,0-2.11-.87c-2.56-.79-6.56-1.85-8.78.35C324.64,152.56,325.24,155.73,323.32,157.64Z" transform="translate(-49.39 -36.69)" fill="#fcbdba"></path><path d="M323.05,161c.55-.34,2.33.37,3,.36,2.11-.06,3.83,1,5.52-.3,1.38-1,1.93-2.79,2.41-4.43a1.22,1.22,0,0,0,0-.27.8.8,0,0,0-.13-.32c-.78-1.14-2.37-1.26-3.71-1.59a13.29,13.29,0,0,1-6.2-3.89,2.53,2.53,0,0,1-.84-1.47,2.07,2.07,0,0,1,1-1.62,7.65,7.65,0,0,1,5.75-1,55.41,55.41,0,0,1,5.75,1.66c1.82.51,3.7.82,5.51,1.4a4,4,0,0,1,1.09.5,3.28,3.28,0,0,1,1,1.33,4.81,4.81,0,0,1,0,4.22,2.12,2.12,0,0,0-.29.63,1.9,1.9,0,0,0,.09.67c.45,2-.54,4-1.5,5.73l-2.5,4.66a4.15,4.15,0,0,1-1.1,1.46,1.41,1.41,0,0,1-1.7.06c-.52-.45-.55-1.35-1.16-1.65a1.49,1.49,0,0,0-1.25.15c-1.1.53-2,1.37-3.08,2a8.19,8.19,0,0,1-6.13.75,4.31,4.31,0,0,1-1.66-.82c-1.07-.92-1-2.15-.78-3.4S321.92,161.7,323.05,161Z" transform="translate(-49.39 -36.69)" fill="#473f47"></path><path d="M334.24,185.09s-7.22,18.57-35.88,22.12l-1-4s19.14-7.57,23.27-15.25a50.14,50.14,0,0,0,3.07-6.71c1.3-3.6,5.47-5.54,8.81-3.67C334.49,178.69,335.72,180.89,334.24,185.09Z" transform="translate(-49.39 -36.69)" fill="#0492d2"></path><path d="M292.51,202.38a2.13,2.13,0,0,0,.6,1.35,16.81,16.81,0,0,1-5.74,1.06,1.37,1.37,0,0,0-1,.28c-.38.41-.08,1.08.27,1.51a9.08,9.08,0,0,0,5.78,3,6.23,6.23,0,0,0,4.25-.69,8.52,8.52,0,0,0,2.21-2.46,1.54,1.54,0,0,0,.26-.49,1.47,1.47,0,0,0-.24-1c-.23-.43-.55-1.28-1-1.49s-1.07,0-1.53-.08C295.05,203.07,293.87,202.23,292.51,202.38Z" transform="translate(-49.39 -36.69)" fill="#fcbdba"></path><path d="M348.05,284.42a1.12,1.12,0,0,1,0,1.82,35.6,35.6,0,0,1-10.95,8c-1.14.53-2.71.91-3.49-.08s.05-2.49.71-3.63a12.15,12.15,0,0,0,1.6-5,4.64,4.64,0,0,1,.35-1.76c.81-1.49,4.79-3,6.44-3C344.9,280.75,346.71,282.9,348.05,284.42Z" transform="translate(-49.39 -36.69)" fill="#0492d2"></path><path d="M300,290.25a1.1,1.1,0,0,1-.89,1.58,35.51,35.51,0,0,1-13.47,1.5c-1.26-.11-2.81-.56-3-1.81s1.28-2.14,2.42-2.79a12.41,12.41,0,0,0,3.86-3.53,4.38,4.38,0,0,1,1.18-1.35c1.44-.9,5.66-.27,7.1.56C299.1,285.5,299.6,288.26,300,290.25Z" transform="translate(-49.39 -36.69)" fill="#0492d2"></path><path d="M112.18,281.18a8.79,8.79,0,0,0,.69,3.72,6.23,6.23,0,0,0,2.71,2.52,10.66,10.66,0,0,0,7.91.78,1.57,1.57,0,0,0,.91-.55,1.29,1.29,0,0,0,.16-.79,5.87,5.87,0,0,0-2.07-3.72,12.87,12.87,0,0,1-2.85-3.26c-1.21-2.46-.31-9-4.92-7.92C110.87,272.83,112.07,278.46,112.18,281.18Z" transform="translate(-49.39 -36.69)" fill="#fbb9ad"></path><path d="M111.54,285.59s-.66,1.62.15,2.56,9.1,6.09,14.68,1.94-7.58-4.68-7.58-4.68Z" transform="translate(-49.39 -36.69)" fill="#0492d2"></path><path d="M111.86,281.85a1.17,1.17,0,0,1,1.49.38,4.86,4.86,0,0,0,4.44,1.59c1.82-.43,2.54-2.53,3.44-2.54s5.72,4.1,6,5.86-2.19,3.06-4.91,3.23-8.9-1.72-10.07-3.15A5.81,5.81,0,0,1,111.86,281.85Z" transform="translate(-49.39 -36.69)" fill="#fff"></path><path d="M96.37,283.69a8.47,8.47,0,0,0,.69,3.72,6.2,6.2,0,0,0,2.71,2.51,10.63,10.63,0,0,0,7.9.78,1.55,1.55,0,0,0,.92-.55,1.33,1.33,0,0,0,.16-.78,5.89,5.89,0,0,0-2.07-3.72,13.41,13.41,0,0,1-2.85-3.25c-1.21-2.45-.31-9-4.92-7.92C95.06,275.36,96.26,281,96.37,283.69Z" transform="translate(-49.39 -36.69)" fill="#fbb9ad"></path><path d="M95.73,288.12s-.66,1.61.15,2.55,9.08,6.09,14.66,1.95-7.56-4.68-7.56-4.68Z" transform="translate(-49.39 -36.69)" fill="#0492d2"></path><path d="M96.05,284.37a1.18,1.18,0,0,1,1.49.39,4.81,4.81,0,0,0,4.44,1.59c1.81-.44,2.54-2.53,3.43-2.54s5.72,4.09,6,5.85-2.19,3.06-4.91,3.23-8.89-1.71-10.06-3.14A5.8,5.8,0,0,1,96.05,284.37Z" transform="translate(-49.39 -36.69)" fill="#fff"></path><path d="M93.06,215.63S92.21,263,95.71,278.8l8.91,1.1,2.43-64.74Z" transform="translate(-49.39 -36.69)" fill="#473f47"></path><path d="M117.67,210.51s7.09,25.5,2,66.53l-8.91,1.1-5.61-65.41Z" transform="translate(-49.39 -36.69)" fill="#473f47"></path><path d="M131,190.1c-.1,1.72-.65,3.2-2.14,3.7a2.79,2.79,0,0,1-.39.1c-2.73.55-6.32-1.53-8.81-3.35a34.87,34.87,0,0,1-3-2.42V169.8L130,183.42A21,21,0,0,1,131,190.1Z" transform="translate(-49.39 -36.69)" fill="#fff"></path><path d="M119.76,190.47c0,.86.11,1.72.11,2.58,0,4.72-1.09,9.6.31,14.24a5.2,5.2,0,0,1,.4,3.16,3.86,3.86,0,0,1-2,1.9c-4.17,2.28-9,3-13.68,3.64-3.54.5-8.56,1.55-11.83-.36-1.39-.81-1.86-2.32-2.31-3.83a72.26,72.26,0,0,1-2.2-14.91c0-.66-.1-1.31-.13-2q-.41-6.78-.28-13.58c.06-3.29.32-6.84,2.47-9.32,2.85-3.3,8.37-5.49,12.57-6.26a14,14,0,0,1,4.13-.23,17.32,17.32,0,0,1,5.58,1.9c2.08,1,3.93,1.9,5,3.95a28.16,28.16,0,0,1,2.33,7.5,26.68,26.68,0,0,1,.16,7.36c-.12,1.2-.43,2.39-.55,3.58A3.83,3.83,0,0,0,119.76,190.47Z" transform="translate(-49.39 -36.69)" fill="#fff"></path><path d="M100.47,217.24c-1.37.4-4.53-.86-5.58-1-.63-.11-1.2-.43-1.83-.57-3.13-.78-3.5-9.58-3.8-11.95-.81-6.25-2.06-12.73-2.15-19a20.93,20.93,0,0,1,.83-7.17,8.27,8.27,0,0,1,4.69-5.22c4-1.44,5.19,11.21,5.74,13.83s.62,7.26,2.35,9.36,5.19,2.49,7.45,1.43a7,7,0,0,0,3.85-6.62,22.5,22.5,0,0,1-.23-2.84,2.51,2.51,0,0,1,1.45-2.27,2.27,2.27,0,0,1,2.27.72,5.77,5.77,0,0,1,1.12,2.24,25.45,25.45,0,0,1,1,5.26c.4,4.23-.24,8.57.77,12.7a11.33,11.33,0,0,1,.64,4,5,5,0,0,1-4.88,4,7.15,7.15,0,0,1-5.75-3.29,2.93,2.93,0,0,0-.79-.89,2.22,2.22,0,0,0-1.16-.23c-1.91,0-4.65.44-5.27,2.58-.44,1.53.62,3-.21,4.58A.88.88,0,0,1,100.47,217.24Z" transform="translate(-49.39 -36.69)" fill="#020202" opacity="0.1" style="isolation: isolate;"></path><path d="M111.29,159.71a3,3,0,0,1-1.59,1.45,7.3,7.3,0,0,0-2.37,1h0a4.16,4.16,0,0,0-1.07,2.3l-.57,2.66-.3,1.34a2.1,2.1,0,0,1-.24.69,1.69,1.69,0,0,1-1.35.56,5.37,5.37,0,0,1-3-.77.77.77,0,0,1-.37-.34,1,1,0,0,1-.06-.59l.33-3.83a4.86,4.86,0,0,0-.47-3.07,24.65,24.65,0,0,1-2.43-6.38,4.45,4.45,0,0,1,3.74-5.65,10.14,10.14,0,0,1,5.75-.06c.7.24.91.72,1.24,1.35.49,1,1,2,1.37,3s.87,2.32,1.24,3.52A4.09,4.09,0,0,1,111.29,159.71Z" transform="translate(-49.39 -36.69)" fill="#fbb9ad"></path><path d="M139.6,179c.12-.2.35-.4.54-.28a.61.61,0,0,1,.16.28,1.25,1.25,0,0,0,1.09.63c.43,0,.88-.07,1.32-.07a3.72,3.72,0,0,1,2.92,1.57,5.93,5.93,0,0,1,1.06,3.23,4.08,4.08,0,0,1-.8,2.92c-1,1.17-2.81,1.2-4.36,1.15h-1.42a1.32,1.32,0,0,1-1.47-1.07c-.58-1.41-1.63-2.82-.91-4.24S138.74,180,139.6,179Z" transform="translate(-49.39 -36.69)" fill="#fbb9ad"></path><path d="M111.69,193.9V183.3a2.06,2.06,0,0,1,1.31-1.92l26.25-10.45c1.36-.54,4.13,1.08,4.13,2.54L142.09,198a2.06,2.06,0,0,1-1.28,1.91l-25,11.52c-1.37.56-4.16-1.06-4.16-2.53Z" transform="translate(-49.39 -36.69)" fill="#0492d2"></path><path d="M111.69,193.9V183.3a2,2,0,0,1,1.3-1.92l26.26-10.45c1.36-.54,4.13,1.08,4.13,2.54L142.09,198a2.07,2.07,0,0,1-1.28,1.91l-25,11.52c-1.36.56-4.15-1.06-4.15-2.53Z" transform="translate(-49.39 -36.69)" fill="url(#linear-gradient-6)"></path><path d="M113,194.52v-10.6a2.07,2.07,0,0,1,1.31-1.93l26.25-10.44a2.07,2.07,0,0,1,2.84,1.92v25.18a2.07,2.07,0,0,1-1.28,1.91l-26.25,10.9a2.07,2.07,0,0,1-2.71-1.13,2,2,0,0,1-.16-.79Z" transform="translate(-49.39 -36.69)" fill="#0492d2"></path><path d="M113,183.92l18,9.26,11.9-21s.46-.27.46,1.29v25.18L113,208.09Z" transform="translate(-49.39 -36.69)" fill="url(#linear-gradient-7)"></path><path d="M106.76,150.21a2.51,2.51,0,0,1-1.61,1.08c-1.78.38-2.86-.48-3.76,1.59a4.18,4.18,0,0,0-.26,2.24c0,.16.56,1.93.7,1.84-.46.33-.82-.57-1.32-.83s-1.24.5-1.12,1.15a3.84,3.84,0,0,0,1.08,1.66,5.65,5.65,0,0,1,1.25,3.5c0,.29-.11.68-.41.69s-.63-.41-.86-.57a8.69,8.69,0,0,0-1.15-.65c-1.22-.58-3.06-.76-4.08-1.58a2.9,2.9,0,0,1-1-1.72c0-.16,0-1.88.3-1.79a2.38,2.38,0,0,1-1.59-3v0a2.49,2.49,0,0,1,.71-1.1c-1.25-1.74-.67-4.32.83-5.85a9.87,9.87,0,0,1,5.8-2.48,15.93,15.93,0,0,1,7,.46A5.42,5.42,0,0,1,109.4,146a2.52,2.52,0,0,1,.81,2.18.74.74,0,0,1-.79-.15,1.45,1.45,0,0,1-.86,1.86,1.46,1.46,0,0,1-1.57-.38A1.57,1.57,0,0,1,106.76,150.21Z" transform="translate(-49.39 -36.69)" fill="#473f47"></path><path d="M107.9,161.72l-.3.09a.41.41,0,0,0-.24.11.38.38,0,0,0,0,.21,4.16,4.16,0,0,0-1.07,2.3l-.57,2.66a21.54,21.54,0,0,1-2.16-5.42A21,21,0,0,0,107.9,161.72Z" transform="translate(-49.39 -36.69)" fill="#dc9f95"></path><path d="M109.42,194a1.62,1.62,0,0,1,1.41-.59,5.85,5.85,0,0,1,.86.53,2.08,2.08,0,0,0,.81.18,8,8,0,0,0,3.33-.47,4.28,4.28,0,0,1,1.72-.43,2.52,2.52,0,0,1,1.71,1.23,4.81,4.81,0,0,1,.17,5.24,5.18,5.18,0,0,1-1.72,1.57,10.69,10.69,0,0,1-4.92,1.22c-1.7.08-3.43,0-5.12.08a1.92,1.92,0,0,1-1.18-.16,1.81,1.81,0,0,1-.57-1.49c-.06-1.29-.28-2.38.47-3.47A39.55,39.55,0,0,1,109.42,194Z" transform="translate(-49.39 -36.69)" fill="#fbb9ad"></path><path d="M90.64,172s-18.79,24.57-12.85,33.25,31-1.43,31-1.43l-2.44-7.19s-17.6,2.23-17.73.26,11.16-13.25,11.16-13.25S101.8,167.13,90.64,172Z" transform="translate(-49.39 -36.69)" fill="#fff"></path></svg>