<svg id="Layer_2" data-name="Layer 2" xmlns="http://www.w3.org/2000/svg" xmlns:xlink="http://www.w3.org/1999/xlink" viewBox="0 0 400 300" width="406" height="306" class="illustration styles_illustrationTablet__1DWOa"><defs><linearGradient id="linear-gradient" x1="38.01" y1="184.9" x2="49.11" y2="169.28" gradientUnits="userSpaceOnUse"><stop offset="0" stop-color="#fd5773"></stop><stop offset="1" stop-color="#9e005d"></stop></linearGradient><linearGradient id="linear-gradient-2" x1="101.35" y1="195.69" x2="112.45" y2="180.06" xlink:href="#linear-gradient"></linearGradient><linearGradient id="linear-gradient-3" x1="243.42" y1="221.35" x2="254.52" y2="205.72" xlink:href="#linear-gradient"></linearGradient><linearGradient id="linear-gradient-4" x1="289.06" y1="225.26" x2="322.3" y2="203.71" xlink:href="#linear-gradient"></linearGradient><linearGradient id="linear-gradient-5" x1="169.06" y1="270.83" x2="181.63" y2="248.82" xlink:href="#linear-gradient"></linearGradient></defs><title>PP</title><path d="M307.53,105.5,304,102.68c-.73-.59-1.54-.83-2-1.77-.51-1.15-.42-2.47-1-3.6a.87.87,0,0,0-1.37-.38,1.91,1.91,0,0,0-.26,1.71,3.59,3.59,0,0,0-2.16-.62,2,2,0,0,0-1.58,1.8c-.15,1.18.76,2.11,1.45,3a46.76,46.76,0,0,0,5.26,5.57c.33.29,3.6,2.77,3.51,3.12Z" fill="#ffb5a9"></path><polyline points="305.85 103.39 304.01 102.69 301.6 107.99 303.19 110.23" fill="#e87256"></polyline><path d="M193.23,287.42,13.5,181.2C7.78,178,2.87,172.71,8.45,169.25l180.37-104c2.71-1.68,6.82-2.78,9.57-1.18L387,173.61c5.72,3.32,6.75,12.6,1,15.93L216.92,287.25A23.9,23.9,0,0,1,193.23,287.42Z" fill="#fd5773"></path><path d="M58.56,178.74a1.73,1.73,0,0,1,.7-.45A25,25,0,0,0,53.14,167l-3.53.37L24.5,180.23l20.61,9.87,10.28-6A17.34,17.34,0,0,1,58.56,178.74Z" fill="url(#linear-gradient)"></path><polyline points="139.03 176.78 103.52 197.38 82.91 187.51 108.02 174.63 129.9 172.32" fill="url(#linear-gradient-2)"></polyline><polyline points="281.1 202.44 245.59 223.03 224.98 213.17 250.09 200.29 271.98 197.98" fill="url(#linear-gradient-3)"></polyline><polyline points="328.83 211.85 294.05 232.88 273.45 223.01 298.56 210.13 320.44 207.82" fill="url(#linear-gradient-4)"></polyline><polyline points="145.64 233.61 126 247.68 182.8 281.25 239.12 246.72" fill="url(#linear-gradient-5)"></polyline><path d="M229.77,97.49s-11.23,3.2-7.93,23.57l24.61-15.72S236.49,95.55,229.77,97.49Z" fill="#68e1fd"></path><path d="M229.77,97.49s-11.23,3.2-7.93,23.57l24.61-15.72S236.49,95.55,229.77,97.49Z" fill="#06489e" opacity="0.39"></path><path d="M35.47,157s-4.16,28.45,13.75,28.55C66.43,185.6,62,156.62,62,156.62S49.48,145.73,35.47,157Z" fill="#68e1fd"></path><ellipse cx="48.68" cy="156.96" rx="13.24" ry="5.47" fill="#68e1fd"></ellipse><ellipse cx="48.68" cy="156.96" rx="13.24" ry="5.47" opacity="0.7"></ellipse><path d="M27.84,115.42s-9.23-2.21-5.69-9.89C22.16,105.52,28.51,106.78,27.84,115.42Z" fill="#938f05"></path><path d="M33.46,123.16S32.18,116.6,37.3,114C37.3,114,41.42,120.83,33.46,123.16Z" fill="#938f05"></path><path d="M39.21,133.22s-1.53-7.85,4.6-11C43.81,122.21,48.74,130.43,39.21,133.22Z" fill="#938f05"></path><path d="M43.67,144.18s-1.53-7.85,4.6-11C48.27,133.16,53.2,141.39,43.67,144.18Z" fill="#938f05"></path><path d="M32.9,123.34s-3.26-5.84-8.88-4.55C24,118.78,25.3,126.69,32.9,123.34Z" fill="#938f05"></path><path d="M38.73,133.46s-4.17-6.83-10.83-5C27.9,128.43,29.81,137.83,38.73,133.46Z" fill="#938f05"></path><path d="M43.16,144.28s-4.89-6.33-11.32-3.81C31.84,140.47,34.77,149.6,43.16,144.28Z" fill="#938f05"></path><path d="M46.61,162.5h.13a6.38,6.38,0,0,1,1.29.1.64.64,0,0,0,0-.13,94.61,94.61,0,0,0-19.9-48c-.57-.72-1.59.3-1,1a92.88,92.88,0,0,1,19.48,47Z" fill="#42352f"></path><path d="M68.45,128s7.92-1.9,4.88-8.49C73.32,119.46,67.88,120.54,68.45,128Z" fill="#938f05"></path><path d="M63.63,134.59s1.1-5.63-3.3-7.9C60.33,126.69,56.8,132.59,63.63,134.59Z" fill="#938f05"></path><path d="M58.7,143.23s1.31-6.73-3.95-9.45C54.75,133.77,50.52,140.83,58.7,143.23Z" fill="#938f05"></path><path d="M54.87,152.63s1.31-6.73-3.95-9.45C50.92,143.17,46.69,150.23,54.87,152.63Z" fill="#938f05"></path><path d="M64.11,134.74s2.79-5,7.62-3.91C71.73,130.84,70.63,137.62,64.11,134.74Z" fill="#938f05"></path><path d="M59.11,143.43s3.57-5.86,9.29-4.32C68.4,139.12,66.76,147.18,59.11,143.43Z" fill="#938f05"></path><path d="M55.31,152.71s4.2-5.43,9.71-3.27C65,149.44,62.51,157.27,55.31,152.71Z" fill="#938f05"></path><path d="M68.2,127.11A81.13,81.13,0,0,0,52,162.39c.42-.07.85-.13,1.28-.17A79.67,79.67,0,0,1,69.07,128C69.56,127.37,68.69,126.49,68.2,127.11Z" fill="#42352f"></path><path d="M111.29,45.36,175.66,8.81a4.19,4.19,0,0,1,4.1,0h0l4.4,2.31-2.24.66a4.32,4.32,0,0,1,.07.71l1.23,129.19a10.13,10.13,0,0,1-5.15,8.92l-64.63,36.49a4.35,4.35,0,0,1-.4.19l.81,2-4-2a4.31,4.31,0,0,1-.77-.4l0,0h0a4.18,4.18,0,0,1-1.89-3.52V52.53A8.24,8.24,0,0,1,111.29,45.36Z" fill="#2c2cb5"></path><path d="M182.19,152.55,117.56,189a4.24,4.24,0,0,1-6.32-3.69V54.51a8.24,8.24,0,0,1,4.17-7.16l64.37-36.55a4.24,4.24,0,0,1,6.33,3.65l1.23,129.19A10.13,10.13,0,0,1,182.19,152.55Z" fill="#5f5cea"></path><polygon points="182.8 144.82 116.45 182.28 116.45 57.8 181.62 20.81 182.8 144.82" fill="#e2f2ee"></polygon><path d="M133.08,175.09c-3.3-20-6-41.83-6.43-46.62-.89-9.35,5.76-19.76,5.76-19.76s22.65-2.41,28.38,8.53c2.5,4.77,4.37,20.7,5.68,37.16C155.66,161.81,144.09,168,133.08,175.09Z" fill="#963626"></path><path d="M152.89,163l-3.07-32.74c-.09-1,1.42-1,1.51,0l3,31.88Z" fill="#663a12"></path><path d="M146,122.55a33.07,33.07,0,0,0,14.17-6.35l-.21-.35c-19.76,0-27.52-7.15-27.52-7.15a37.34,37.34,0,0,0-5.64,15.21A79.41,79.41,0,0,0,146,122.55Z" fill="#663a12" opacity="0.59"></path><path d="M218.42,81.38a31.8,31.8,0,0,0-5.1-.85,28.44,28.44,0,0,1,5.21.54c1.79.29,2-2.53.21-2.82l-.89-.14a1.47,1.47,0,0,0-.92-2.38,27.71,27.71,0,0,0-11.69,1.07,23.53,23.53,0,0,0-.08-4.28,1.25,1.25,0,0,0-.28-.67c-.34-1.21-2.53-1.18-2.8.38-.39,2.27-.27,4.58-.66,6.82a8.9,8.9,0,0,1-.31,1.2Q198.52,83,196,85.75c-1.19,1.32,1,2.88,2.22,1.71a1.67,1.67,0,0,0,.76.62l-.21.28a1.26,1.26,0,0,0-.15,1.27l-.2.2c-1.29,1.27.52,3.44,1.82,2.17l.45-.45a1.14,1.14,0,0,0,1.66-.46,13.31,13.31,0,0,1,4.38-4.36l.55-.38a17.89,17.89,0,0,1,4.75-.92c1.2.3,2.4.67,3.58,1a1.41,1.41,0,0,0,1.1-2.58l.77.17C219.21,84.49,220.19,81.83,218.42,81.38Z" fill="#ffc388"></path><path d="M218.08,77.74a31.26,31.26,0,0,0-5.62-.25c-.46,0-.52.74-.05.72a31.26,31.26,0,0,1,5.62.25C218.48,78.52,218.54,77.8,218.08,77.74Z" fill="#663a12"></path><path d="M218.34,80.6a38.73,38.73,0,0,0-6-.42c-.46,0-.52.72-.05.72a38.72,38.72,0,0,1,6,.42C218.75,81.39,218.8,80.67,218.34,80.6Z" fill="#663a12"></path><path d="M210.38,81.55c-2.3-.78-4.53,0-6.49,1.23-.39.25.08.8.46.55a6.57,6.57,0,0,1,5.78-1.1A.36.36,0,0,0,210.38,81.55Z" fill="#663a12"></path><path d="M211.53,81.38c-.37-1.63-1.07-3.22-2.71-3.9-.43-.18-.67.5-.24.68,1.39.58,1.94,2,2.24,3.35C210.92,82,211.63,81.83,211.53,81.38Z" fill="#663a12"></path><path d="M217.32,83.23A15.28,15.28,0,0,0,212.7,82c-.46-.05-.52.67-.05.72a14.66,14.66,0,0,1,4.43,1.21C217.5,84.1,217.74,83.42,217.32,83.23Z" fill="#663a12"></path><path d="M199.48,80.61a119.68,119.68,0,0,0-11.11,8.73l-1.91-11.68-14.14,4.57s3,18.41,7.23,23.16c0,0,3.84,5.41,11,1.6,5.07-2.71,13.08-12.55,16.92-18.42A14.52,14.52,0,0,0,199.48,80.61Z" fill="#68e1fd"></path><path d="M199.48,80.61a119.68,119.68,0,0,0-11.11,8.73l-1.91-11.68-14.14,4.57s3,18.41,7.23,23.16c0,0,3.84,5.41,11,1.6,5.07-2.71,13.08-12.55,16.92-18.42A14.52,14.52,0,0,0,199.48,80.61Z" fill="#06489e" opacity="0.39"></path><path d="M170.41,66.8c-.75-.19-6.95.86-12.34,2.61s-28.74,35.89-25.67,39.31,17.49,10.22,26.16,8.34,28.86-35.56,27.91-39.39c-2.17-8.77-8.95-8.8-8.95-8.8" fill="#68e1fd"></path><path d="M186.61,59.41s-1,12.92-6.05,14.25-9-4.39-9.92-7.43S171,49,179.35,51.69,186.61,59.41,186.61,59.41Z" fill="#ffc388"></path><path d="M186.07,49.3c-3.56-1.24-7.67-3.91-14,.27s-8.29,15.79-.73,18.59L172.77,64a4.22,4.22,0,0,1-.88-3,2.45,2.45,0,0,1,2.93-2.28,6.41,6.41,0,0,0,1.88-2.22c1.28-2.53,2.72-1.28,4.6,1s5.87,2.93,7.85,1.5S190.58,50.87,186.07,49.3Z" fill="#af5912"></path><path d="M174.6,104.37s-7.51-6.26-7.51-9S171,72.59,164.54,71,152.84,84.57,151,93.49s11.75,18.41,11.75,18.41" fill="#68e1fd"></path><path d="M185.16,105.09l8.15-2.83s5.57-4.34,8.16-2.55c.69.48-5.41,4.59-5.41,4.59s10.65-2.09,11,.06c.63,4.18-3.4,10.19-8,9.69a142,142,0,0,1-14.81-2.73" fill="#ffc388"></path><path d="M192.52,102c-4.53-1.22-11.26-.49-17.56-.89-8.09,0-17.28-.84-16.63,7.79.72,9.6,27,6.87,34.52,5.89C194.27,110.65,193.86,106.21,192.52,102Z" fill="#68e1fd"></path><path d="M163.33,114.09s-10.18-3.27-11.26-11.93-1.25-16-1.25-16-7.05,16.84-4.31,22.37S163.33,114.09,163.33,114.09Z" fill="#06489e" opacity="0.39"></path><path d="M175,101.06s-8.38-1-7.87-5.68,3.24-11.45,3.24-11.45S166.39,99.09,175,101.06Z" fill="#06489e" opacity="0.39"></path><path d="M139.26,108.15,157.6,97.57a2.77,2.77,0,0,1,4.16,2.4v11.9a2.77,2.77,0,0,1-1.37,2.39l-18.34,10.8a2.77,2.77,0,0,1-4.18-2.39V110.56A2.77,2.77,0,0,1,139.26,108.15Z" fill="#ed1c24"></path><path d="M148.1,106.85c0,2,0,7.83,0,10.08a.43.43,0,0,0,.7.33l7.47-6.19a.43.43,0,0,0-.08-.71l-7.46-3.89A.43.43,0,0,0,148.1,106.85Z" fill="#fff"></path><path d="M121.34,175l57.24-33a.75.75,0,0,0-.76-1.3l-57.24,33a.75.75,0,0,0,.76,1.3Z" fill="#b3b3b3"></path><ellipse cx="121.25" cy="174.03" rx="2.06" ry="1.56" transform="translate(-79.5 242.5) rotate(-73.97)" fill="#3c6071"></ellipse><path d="M312.29,183.63c-10.64,7.7-22.78,13.6-34,20.15-8.1,4.72-16.15,9.52-24.23,14.27-25.54-19.87-11.78-52.93-11.66-79.46,0-9.18-.13-18.77-2.62-27.67-.91-3.25-2.14-6.68-4.37-9.28-1-1.13-8.1-5.48-9.91-4.41l12.69-6.56c.76-.45,2.43-1.17,3.19-1.62,4.31-2.55,9.85-5.18,14.15-7.73,5.31-3.15,8.51-4.32,13.82-7.46l6-3.58c1.73-1,3.78-2.7,5.95-2.21,1.94.44,3.75,2.13,5,3.59,2.23,2.6,3.46,6,4.37,9.28,2.5,8.9,2.66,18.49,2.62,27.67C293.2,136.33,281.59,164.6,312.29,183.63Z" fill="#68e1fd"></path><ellipse cx="254.6" cy="113.34" rx="4.45" ry="6.1" fill="#fff"></ellipse><path d="M262,107.27,285.9,93.21a1.25,1.25,0,0,0-1.26-2.16l-23.93,14.06a1.25,1.25,0,0,0,1.26,2.16Z" fill="#f2f2f2"></path><path d="M263.91,111.93l15.18-8.7a1.25,1.25,0,0,0-1.26-2.16l-15.18,8.7a1.25,1.25,0,0,0,1.26,2.16Z" fill="#f2f2f2"></path><ellipse cx="253.96" cy="140.01" rx="6.1" ry="4.45" transform="translate(65.98 360.82) rotate(-78.46)" fill="#fff"></ellipse><path d="M261.31,135.52l23.93-14.06A1.25,1.25,0,0,0,284,119.3L260,133.36a1.25,1.25,0,0,0,1.26,2.16Z" fill="#f2f2f2"></path><path d="M263.25,140.18l15.18-8.7a1.25,1.25,0,0,0-1.26-2.16L262,138a1.25,1.25,0,0,0,1.26,2.16Z" fill="#f2f2f2"></path><ellipse cx="251.06" cy="165.3" rx="6.1" ry="4.45" transform="translate(21.77 359.67) rotate(-73.65)" fill="#fff"></ellipse><path d="M258.39,161.58l23.93-14.06a1.25,1.25,0,0,0-1.26-2.16l-23.93,14.06a1.25,1.25,0,0,0,1.26,2.16Z" fill="#f2f2f2"></path><path d="M258.9,166.77l15.18-8.7a1.25,1.25,0,0,0-1.26-2.16l-15.18,8.7a1.25,1.25,0,0,0,1.26,2.16Z" fill="#f2f2f2"></path><ellipse cx="253.88" cy="188.92" rx="4.45" ry="6.1" fill="#fff"></ellipse><path d="M261,184.1,284.93,170a1.25,1.25,0,0,0-1.26-2.16l-23.93,14.06A1.25,1.25,0,0,0,261,184.1Z" fill="#f2f2f2"></path><path d="M263.09,188.45l15.18-8.7a1.25,1.25,0,0,0-1.26-2.16l-15.18,8.7a1.25,1.25,0,0,0,1.26,2.16Z" fill="#f2f2f2"></path><path d="M252.13,113.83l1-1.87s2.17,2.39,2.17,2.15,2-9.4,2-9.4l1.64,1.35-2.68,11Z" fill="#4eb300"></path><path d="M296.2,93.07s1.2-.61,2.8.68.71,2.1.71,2.1S295.86,95.41,296.2,93.07Z" fill="#aa4d56"></path><path d="M265.59,140c.24-.12,1.1-.66,1.35-.76l32.78-43.43s-3.68-1.33-3.51-2.78L263.09,136c-.28.77-.59,1.52-.92,2.28l2.12,2.38A4.92,4.92,0,0,1,265.59,140Z" fill="#7f252b"></path><path d="M266.94,139.28s-3.54-.4-3.74-3.56l-4.13,8.41Z" fill="#e8ca9a"></path><path d="M259.07,144.13l2.23-4.57a2.27,2.27,0,0,0,2.18,1.86Z" fill="#7f252b"></path><path d="M319.45,122.09a.76.76,0,0,1,.25-1.34c2.54-.67,5.52-1,7.64-2.63,4.5-3.56,1.06-10.62-1.41-14.33a23.77,23.77,0,0,0-3.81-4.43c-.11-.1-1.83-1.4-1.82-1.45l-7.88,26-2.73,2a34.75,34.75,0,0,0,9.32.24A18.27,18.27,0,0,1,319.45,122.09Z" fill="#e87256"></path><path d="M321.63,211.06l3.27-1.81-.83-4.67s-4.87.46-5.3,2.19" fill="#003b94"></path><path d="M320.4,211c-.74-.45-1.51-.85-2.26-1.26-1.89-1-4.62-2.11-5.78-4a2.26,2.26,0,0,1,.15-2.54c1.72-2.07,5.46,1.33,7.38-1,.38-.46.55-7.65.55-7.65l7.29,2s1.24,14.46,1.1,15.36-2.65,1.75-2.65,1.75a6.46,6.46,0,0,1-2.1-.82c-.76-.56-.07-7.34-1-6.39s-1.4,4.66-1.4,4.66A5,5,0,0,1,320.4,211Z" fill="#68e1fd"></path><path d="M307.68,218.05l3.27-1.81-.83-4.67s-4.87.46-5.3,2.19" fill="#003b94"></path><path d="M306.45,218c-.74-.45-1.51-.85-2.26-1.26-1.89-1-4.62-2.11-5.78-4a2.26,2.26,0,0,1,.15-2.54c1.72-2.07,5.46,1.33,7.38-1,.38-.46.55-7.65.55-7.65l7.29,2s1.24,14.46,1.1,15.36-2.65,1.75-2.65,1.75a6.46,6.46,0,0,1-2.1-.82c-.76-.56-.07-7.34-1-6.39s-1.4,4.66-1.4,4.66A5,5,0,0,1,306.45,218Z" fill="#68e1fd"></path><path d="M331.44,171l2.11,28.73s-3.41,4.72-14.9,2.09h0l-.11-19.37" fill="#ffb000"></path><path d="M318.14,176.72c.25,2.48,0,29.76,0,29.76s-3.17,5.94-17,0l.19-23.18" fill="#ffb000"></path><path d="M332.51,185.5c-.94.65-1.27-7.68-2.25-7.11a56,56,0,0,1-11.33,5l-.09,0a.78.78,0,0,0-1,.39,59.87,59.87,0,0,1-7.44,1.69c-3.23.52-5.9-1.87-9.21-2,0-12.68-.06-48.82,5.34-56.45l16-5.34c.07,1.32,7.76,10.22,7.57,21.07-.21,12.23,1.38,23.77,1.65,27.59C331.72,170.94,332.48,184.81,332.51,185.5Z" fill="#ffb000"></path><path d="M305,112.39l1.48,14.55s11.92.48,17.06-3.07V111.53" fill="#ff8f6f"></path><path d="M288.46,103.48l1.22,1.66A39.93,39.93,0,0,1,288,101c-.34-1,1.21-1.35,1.55-.39l.18.49q-.22-.77-.42-1.55a.8.8,0,0,1,1.55-.39,41.49,41.49,0,0,0,1.2,4,28.36,28.36,0,0,1-.57-3.51c-.1-1,1.5-1,1.59,0a25.27,25.27,0,0,0,.72,4q0-.68.13-1.37a.81.81,0,0,1,.33-.57c0-.18.1-.35.16-.53a.8.8,0,0,1,1.56.24l.1,6a7.17,7.17,0,0,0,1.12,1.71,27.81,27.81,0,0,0-2.22,1.74,22.93,22.93,0,0,0-1.81,1.74q-.77-1-1.48-2a.87.87,0,0,1-.15-.17q-2.14-3.16-4.42-6.23C286.46,103.45,287.86,102.67,288.46,103.48Z" fill="#ffb5a9"></path><path d="M312.58,99.12s-5.63,1.52-7.91,5.17a64.39,64.39,0,0,0-3.77,7.78l-4.16-6.46s-5,1.55-7.05,4c0,0,6,13.09,11.21,14.22s10.75-7.76,10.75-7.76,1.15,3.68.92-.25" fill="#ff8f6f"></path><path d="M326.53,115.65c-3.18,2.81-10.8,2.67-14.88.45-.42-1.45-1.48-19.63-1.52-21.18-.07-2.24.19-4.48.34-6.72a.65.65,0,0,0,0-.29c.75-2.52,2.29-4.66,5.33-4.92,7.87-.67,8.31,8,8.25,11.58C324,96.63,326.13,114.32,326.53,115.65Z" fill="#af5912"></path><path d="M318,138.76a.55.55,0,0,1,1.11,0q-.35,32.28.63,64.54c0,.71-1.08.71-1.11,0Q317.62,171,318,138.76Z" fill="#ba2f2f"></path><path d="M255.18,212.48c-13.15-10-11.69-26.71-12.76-31.09s2.52-24.85,4-40.13a109.61,109.61,0,0,0-2.7-34.57c-.8-2.8-4.15-8-10.56-10.47-10.26-1.75-15.34,7.39-16.8,17,.06,2.16.25,3.61.25,3.61l5.2,4.21c-2.91-21.53,6.38-21.9,9.48-21.9,8.37,0,13.36,18.05,7.52,63.1S254,218.05,254,218.05l47.1-27.18v-5.33Z" fill="#fff"></path><path d="M238.63,246.92c.19,0,1.92-.69.46-1.8a29.9,29.9,0,0,0-3-2.06" fill="#58e6ca"></path><path d="M238.63,237.76s-1.45,5.38,0,8.25l-19.76,11.61-19.54,11.31v-8.35" fill="#ffe8bc"></path><path d="M239.28,236.92q-.07.56-.14,1.12l-39.81,22.53v8.35l39.78-23.2c0,.33,0,.66,0,1l-41.33,23.92V259.24Z" fill="#58e6ca"></path><path d="M239.06,237.07,198,260.57l-57.61-33.82,40.18-23a4,4,0,0,1,4,0L239.07,236A.6.6,0,0,1,239.06,237.07Z" fill="#58e6ca"></path><path d="M197.79,270.63s-57.58-33.91-57.4-34.07,0-9.81,0-9.81L198,260.57Z" fill="#46d1b6"></path><path d="M239.07,236a1.46,1.46,0,0,1,.6,1c.07.7-.68,1-.94,1.19" fill="#58e6ca"></path><path d="M233.24,231.1c.19,0,1.92-.69.46-1.8a29.9,29.9,0,0,0-3-2.06" fill="#58e6ca"></path><path d="M233.24,221.94s-1.45,5.38,0,8.25L213.48,241.8l-19.54,11.31v-8.35" fill="#ffe8bc"></path><path d="M233.89,221.11q-.07.56-.14,1.12l-39.81,22.53v8.35l39.78-23.2c0,.33,0,.66,0,1l-41.33,23.92V243.43Z" fill="#58e6ca"></path><path d="M233.68,221.26l-41.06,23.5L135,210.94l40.18-23a4,4,0,0,1,4,0l54.51,32.31A.6.6,0,0,1,233.68,221.26Z" fill="#58e6ca"></path><path d="M192.41,254.82s-57.58-33.91-57.4-34.07,0-9.81,0-9.81l57.61,33.82Z" fill="#46d1b6"></path><path d="M233.68,220.23a1.46,1.46,0,0,1,.6,1c.07.7-.68,1-.94,1.19" fill="#58e6ca"></path><path d="M144.24,210.64c-2.63-3.4-6.93-1.48-8.25,2-1.48,3.9-.18,8.37,3.91,9.87,1.82.66,2.6-2.23.8-2.89-2.06-.75-2.59-3-2.19-5,.37-1.79,1.94-4,3.6-1.88C143.3,214.29,145.41,212.15,144.24,210.64Z" fill="#5f5cea"></path><path d="M152.89,216c-2.63-3.4-6.93-1.48-8.25,2-1.48,3.9-.18,8.37,3.91,9.87,1.82.66,2.6-2.23.8-2.89-2.06-.75-2.59-3-2.19-5,.37-1.79,1.94-4,3.6-1.88C151.95,219.67,154.06,217.53,152.89,216Z" fill="#5f5cea"></path><path d="M162.77,221.67c-2.63-3.4-6.93-1.48-8.25,2-1.48,3.9-.18,8.37,3.91,9.87,1.82.66,2.6-2.23.8-2.89-2.06-.75-2.59-3-2.19-5,.37-1.79,1.94-4,3.6-1.88C161.83,225.31,163.94,223.18,162.77,221.67Z" fill="#5f5cea"></path><path d="M171.95,226.8c-2.63-3.4-6.93-1.48-8.25,2-1.48,3.9-.18,8.37,3.91,9.87,1.82.66,2.6-2.23.8-2.89-2.06-.75-2.59-3-2.19-5,.37-1.79,1.94-4,3.6-1.88C171,230.44,173.11,228.31,171.95,226.8Z" fill="#5f5cea"></path><path d="M180.92,231.25c-2.63-3.4-6.93-1.48-8.25,2-1.48,3.9-.18,8.37,3.91,9.87,1.82.66,2.6-2.23.8-2.89-2.06-.75-2.59-3-2.19-5,.37-1.79,1.94-4,3.6-1.88C180,234.89,182.09,232.76,180.92,231.25Z" fill="#5f5cea"></path><path d="M190.1,235.74c-2.63-3.4-6.93-1.48-8.25,2-1.48,3.9-.18,8.37,3.91,9.87,1.82.66,2.6-2.23.8-2.89-2.06-.75-2.59-3-2.19-5,.37-1.79,1.94-4,3.6-1.88C189.16,239.38,191.27,237.25,190.1,235.74Z" fill="#5f5cea"></path></svg>